<svg width="75" height="75" viewBox="0 0 75 75" fill="none" xmlns="http://www.w3.org/2000/svg">
<path d="M51.5651 51.5651C51.2793 51.5651 18.7398 51.5651 18.7398 51.5651C18.7398 51.5651 4.6135 50.1361 4.69516 37.5204C4.73598 30.3756 11.2684 24.0474 18.7398 23.4349C18.7398 13.718 24.9864 4.69516 35.1524 4.69516C43.1954 4.69516 48.5846 9.59445 50.5035 16.4535C62.0985 15.9227 69.9782 25.1089 70.3048 32.8253C70.8356 43.1546 60.0163 51.5651 51.5651 51.5651ZM54.0555 11.7991C50.626 4.81764 43.4812 0 35.1524 0C24.0474 0 14.9428 8.61459 14.1263 19.5563C5.96081 21.8835 0 29.0283 0 37.5204C0 47.4823 8.28797 55.6478 18.7398 56.2194C18.7398 56.2194 51.1568 56.2602 51.5651 56.2602C63.8541 56.2602 75 46.2983 75 34.0093C75 22.1285 65.7322 12.4932 54.0555 11.7991ZM58.5874 63.2825C57.3217 63.2825 56.2602 64.344 56.2602 65.6505V72.6728C56.2602 73.9793 57.3217 75 58.5874 75C59.8939 75 60.9554 73.9793 60.9554 72.6728V65.6505C60.9554 64.344 59.8939 63.2825 58.5874 63.2825ZM44.5427 63.2825C43.2363 63.2825 42.2156 64.344 42.2156 65.6505V72.6728C42.2156 73.9793 43.2363 75 44.5427 75C45.8492 75 46.8699 73.9793 46.8699 72.6728V65.6505C46.8699 64.344 45.8492 63.2825 44.5427 63.2825ZM16.4126 63.2825C15.1062 63.2825 14.0855 64.344 14.0855 65.6505V72.6728C14.0855 73.9793 15.1062 75 16.4126 75C17.7191 75 18.7398 73.9793 18.7398 72.6728V65.6505C18.7398 64.344 17.7191 63.2825 16.4126 63.2825ZM30.4573 63.2825C29.1916 63.2825 28.1301 64.344 28.1301 65.6505V72.6728C28.1301 73.9793 29.1916 75 30.4573 75C31.7637 75 32.8253 73.9793 32.8253 72.6728V65.6505C32.8253 64.344 31.7637 63.2825 30.4573 63.2825Z" fill="#B9B9B9"/>
</svg>
