<svg width="45" height="45" viewBox="0 0 45 45" fill="none" xmlns="http://www.w3.org/2000/svg">
<path d="M45.0001 22.5C45.0001 23.8699 44.1782 24.9384 43.3714 25.9917C42.8844 26.6249 42.4064 27.249 42.2603 27.7939C42.1081 28.3571 42.2116 29.1638 42.3151 29.9736C42.4825 31.2918 42.653 32.6191 41.9954 33.7485C41.344 34.8718 40.1324 35.3802 38.9208 35.8855C38.1536 36.2052 37.3865 36.5279 36.9664 36.9541C36.5523 37.3742 36.2418 38.12 35.9283 38.8659C35.4168 40.0896 34.9054 41.3165 33.7395 41.974C32.5948 42.6224 31.3041 42.4581 30.0103 42.2967C29.2005 42.1963 28.3907 42.0928 27.791 42.2541C27.2096 42.4124 26.5703 42.9025 25.9279 43.3957C24.8868 44.1963 23.8426 44.997 22.4971 44.997C21.1485 44.997 20.086 44.1841 19.0388 43.3805C18.3995 42.8903 17.7633 42.4033 17.2062 42.2541C16.6399 42.1049 15.8576 42.2054 15.0661 42.3058C13.7692 42.4733 12.4511 42.6407 11.2608 41.9801C10.0492 41.3073 9.54686 40.0714 9.05065 38.8476C8.74927 38.1078 8.45093 37.3711 8.03996 36.9662C7.61681 36.5492 6.86184 36.2326 6.10382 35.916C4.88917 35.4076 3.67452 34.8962 3.00174 33.7515C2.332 32.6099 2.50553 31.3192 2.67905 30.0223C2.78864 29.2126 2.89823 28.3937 2.73689 27.7939C2.57859 27.2003 2.08542 26.5641 1.5953 25.9278C0.794662 24.8928 -0.00292969 23.8547 -0.00292969 22.5C-0.00292969 21.1301 0.819016 20.0616 1.62574 19.0083C2.11282 18.3751 2.59077 17.751 2.73689 17.2061C2.88606 16.6459 2.7856 15.8605 2.68209 15.066C2.51466 13.7722 2.34418 12.457 2.98956 11.2728C3.65321 10.0551 4.8983 9.54979 6.13731 9.05053C6.8801 8.74915 7.61986 8.45082 8.03387 8.0368C8.46311 7.60756 8.77971 6.8465 9.09936 6.08849C9.6047 4.87992 10.11 3.67136 11.2455 3.00467C12.3871 2.33493 13.6779 2.50846 14.9747 2.68198C15.7845 2.79157 16.6034 2.90116 17.2031 2.73982C17.7968 2.58152 18.433 2.08835 19.0693 1.59823C20.1043 0.797592 21.1424 0 22.4971 0C23.867 0 24.9355 0.821946 25.9888 1.62867C26.622 2.11575 27.2461 2.5937 27.791 2.73982C28.3512 2.88899 29.1366 2.78853 29.9311 2.68502C31.2249 2.51759 32.54 2.34711 33.7242 2.99249C34.9419 3.65614 35.4473 4.90123 35.9465 6.14024C36.2449 6.88303 36.5463 7.62278 36.9603 8.03985C37.3865 8.46604 38.1475 8.78264 38.9055 9.09924C40.1141 9.60459 41.3227 10.1099 41.9894 11.2454C42.6591 12.387 42.4856 13.6778 42.3121 14.9746C42.2025 15.7844 42.0929 16.6033 42.2542 17.203C42.4125 17.7966 42.9057 18.4329 43.3958 19.0691C44.1964 20.1042 44.994 21.1423 44.994 22.497L45.0001 22.5ZM13.6901 27.3951H14.8104C15.0052 27.3951 15.1848 27.453 15.337 27.5504L18.9566 29.4439H27.7484C28.3298 29.4439 28.8717 29.246 29.301 28.9112C29.7302 28.5733 30.0529 28.0984 30.1929 27.5352L31.3832 22.7588L31.4015 22.6918C31.4167 22.6248 31.4319 22.5578 31.4411 22.4878V22.4848C31.4502 22.4148 31.4563 22.3295 31.4563 22.2291L31.4593 22.1225C31.4502 21.4406 31.1701 20.8226 30.7226 20.3751C30.269 19.9215 29.6358 19.6384 28.9417 19.6384H24.7376C24.2018 19.6384 23.7665 19.2031 23.7665 18.6673C23.7665 18.4786 23.8213 18.302 23.9126 18.1559L25.2491 15.48C25.4074 15.1695 25.5291 14.8407 25.6113 14.4967C25.6935 14.1588 25.7361 13.8148 25.7361 13.4708V13.4373H25.7331C25.7331 12.9867 25.5504 12.5788 25.2552 12.2805C24.9599 11.9852 24.5519 11.8025 24.0983 11.8025L24.0405 11.7995C23.8152 11.8147 23.596 11.8756 23.3921 11.9791C23.1698 12.0917 22.975 12.2561 22.8198 12.457L22.7711 12.5179L17.5806 19.1726C17.3888 19.4162 17.1057 19.544 16.8196 19.544V19.5471H13.6901V27.386V27.3951ZM13.6901 17.614H16.3507L21.2459 11.3368L21.2733 11.2972C21.6051 10.8558 22.0313 10.5026 22.5123 10.2561C22.9598 10.0277 23.4591 9.89379 23.9796 9.86944C24.0192 9.86335 24.0557 9.86335 24.0953 9.86335H24.1379C25.106 9.87553 25.9858 10.2743 26.622 10.9106C27.2644 11.5529 27.6632 12.4388 27.6692 13.419V13.4586C27.6692 13.4951 27.6662 13.5286 27.6632 13.5621C27.654 14.034 27.5962 14.4997 27.4866 14.9503C27.3709 15.4343 27.1943 15.9062 26.966 16.3567L26.2963 17.6931H28.9326C30.1594 17.6931 31.2736 18.1924 32.0803 18.9991C32.8658 19.7845 33.3589 20.8622 33.3863 22.0555C33.3894 22.0982 33.3924 22.1408 33.3894 22.1864V22.2291C33.3894 22.3874 33.3772 22.5578 33.3528 22.7435C33.3315 22.8927 33.3041 23.0419 33.2646 23.188L32.0682 28.0009C31.8216 28.9934 31.2523 29.8397 30.4882 30.4363C29.7393 31.0239 28.8047 31.3709 27.8062 31.3831L27.7453 31.3861H18.7222V31.3831C18.57 31.3831 18.4178 31.3466 18.2747 31.2735L14.576 29.3374H13.687V32.2842C13.687 32.82 13.2517 33.2553 12.7159 33.2553C12.1801 33.2553 11.7448 32.82 11.7448 32.2842V14.6702C11.7448 14.1344 12.1801 13.6991 12.7159 13.6991C13.2517 13.6991 13.687 14.1344 13.687 14.6702V17.617L13.6901 17.614ZM41.8341 24.8167C42.443 24.0252 43.0609 23.2184 43.0609 22.5C43.0609 21.7937 42.4673 21.0235 41.8706 20.2533C41.2587 19.4618 40.6468 18.6673 40.3881 17.7053C40.1293 16.7403 40.2663 15.7296 40.4003 14.725C40.5312 13.7539 40.659 12.7889 40.3272 12.2226C39.9923 11.6503 39.0791 11.2698 38.1688 10.8893C37.2343 10.4996 36.2966 10.1069 35.5934 9.40367C34.9024 8.70958 34.5279 7.78717 34.1535 6.85868C33.7821 5.94236 33.4107 5.01996 32.8018 4.68813C32.1686 4.34413 31.164 4.47504 30.1777 4.6029C29.1883 4.73075 28.2111 4.85861 27.2948 4.61203C26.3785 4.36544 25.6022 3.76877 24.8168 3.16601C24.0253 2.55716 23.2186 1.93918 22.5001 1.93918C21.7939 1.93918 21.0237 2.53281 20.2535 3.12948C19.462 3.74137 18.6674 4.35327 17.7054 4.61203C16.7404 4.87079 15.7297 4.7338 14.7251 4.59985C13.754 4.46895 12.789 4.34109 12.2228 4.67291C11.6504 5.01082 11.2669 5.92105 10.8863 6.83128C10.4967 7.76586 10.104 8.70045 9.40378 9.40062C8.70665 10.0978 7.78424 10.4692 6.85575 10.8466C5.93943 11.218 5.01703 11.5894 4.68825 12.1983C4.34425 12.8315 4.47515 13.8361 4.60301 14.8224C4.73087 15.8118 4.85873 16.789 4.61214 17.7053C4.36556 18.6216 3.76889 19.3979 3.16613 20.1833C2.55728 20.9748 1.9393 21.7816 1.9393 22.5C1.9393 23.2063 2.53292 23.9765 3.1296 24.7467C3.74149 25.5382 4.35338 26.3327 4.61214 27.2947C4.8709 28.2597 4.73391 29.2704 4.59997 30.275C4.46906 31.2461 4.34121 32.2111 4.67303 32.7774C5.01094 33.3558 5.93639 33.7424 6.85575 34.129C7.77816 34.5156 8.70056 34.9053 9.39769 35.5902C10.1009 36.2813 10.4723 37.2007 10.8498 38.1261C11.2212 39.0363 11.5956 39.9557 12.2045 40.2966C12.8407 40.6498 13.8392 40.5219 14.8256 40.3971C15.8089 40.2723 16.78 40.1475 17.7024 40.391C18.637 40.6376 19.4254 41.2434 20.2169 41.8492C21.0054 42.452 21.7999 43.0639 22.5001 43.0639C23.1942 43.0639 23.9766 42.4641 24.7559 41.8644C25.5474 41.2556 26.3389 40.6467 27.2918 40.391C28.2416 40.1353 29.2492 40.2601 30.2538 40.388C31.228 40.5097 32.1991 40.6346 32.7836 40.3027C33.3711 39.9709 33.7547 39.0516 34.1383 38.1322C34.5218 37.2128 34.9054 36.2965 35.5843 35.6055C36.2814 34.8962 37.2282 34.5004 38.1749 34.1047C39.0852 33.7241 39.9954 33.3436 40.3181 32.7865C40.6468 32.2172 40.522 31.2187 40.3942 30.2232C40.2663 29.2186 40.1385 28.2171 40.385 27.3008C40.6316 26.3845 41.2283 25.6082 41.8311 24.8228L41.8341 24.8167Z" fill="#E57920"/>
</svg>
