<svg width="42" height="42" viewBox="0 0 42 42" fill="none" xmlns="http://www.w3.org/2000/svg">
<path d="M26.469 27.3791H13.6854V25.5675H26.469V27.3791Z" fill="#E57920"/>
<path d="M26.469 34.6894H13.6854V32.8777H26.469V34.6894Z" fill="#E57920"/>
<path d="M37.4356 41.9996H4.55693L4.55295 41.9956C3.29833 41.989 2.16175 41.4771 1.33816 40.6535C0.517215 39.8325 0.00661464 38.6973 -1.65381e-05 37.4413L-0.00134277 10.9644C11.5608 10.967 23.1229 10.967 34.6837 10.9644V37.4387H34.6797C34.685 38.1946 34.994 38.8803 35.49 39.3763C35.9648 39.8511 36.6094 40.1548 37.3216 40.188H37.433V40.1906L37.8123 40.1919L39.6186 41.9983H37.4317L37.4356 41.9996ZM4.55693 40.1919V40.188H33.8097C33.2301 39.4254 32.8827 38.4745 32.8774 37.4426L32.8734 37.4387V12.776H1.80366L1.80499 37.4334C1.80897 38.1906 2.11931 38.879 2.6193 39.379C3.11664 39.8763 3.80097 40.1853 4.55693 40.1906V40.1919Z" fill="#E57920"/>
<path d="M41.9966 4.56129V37.44C41.9966 38.6999 41.486 39.8392 40.6611 40.6641H40.6571C39.8349 41.4863 38.6956 41.9956 37.437 41.9969V42.0009C36.1771 42.0009 35.0365 41.4903 34.2103 40.6641C33.3854 39.8392 32.8734 38.6986 32.8734 37.4387V12.7773H7.30627V0.000366211H26.8457L30.4279 3.65945L41.9953 3.65812V4.55996L41.9966 4.56129ZM40.185 37.44V5.46313L29.6679 5.46446L26.0924 1.812H9.11791V10.9657H34.6851V37.4387C34.6851 38.1986 34.9928 38.8856 35.4901 39.3829C35.9874 39.8803 36.6758 40.188 37.4344 40.188L37.4357 40.1919C38.193 40.1919 38.8813 39.8829 39.3813 39.3856L39.38 39.3843C39.8773 38.8869 40.185 38.1999 40.185 37.4413V37.44Z" fill="#E57920"/>
<path d="M6.37524 32.8777H10.0303V34.6894H6.37524V32.8777Z" fill="#E57920"/>
<path d="M6.37524 25.5675H10.0303V27.3791H6.37524V25.5675Z" fill="#E57920"/>
<path d="M26.469 20.0875H13.6854V18.2759H26.469V20.0875Z" fill="#E57920"/>
<path d="M6.37524 18.2759H10.0303V20.0875H6.37524V18.2759Z" fill="#E57920"/>
</svg>
