<svg width="44" height="40" viewBox="0 0 44 40" fill="none" xmlns="http://www.w3.org/2000/svg">
<path d="M13.4007 35.328C13.4007 34.4998 13.0672 33.7522 12.5253 33.2103C11.9834 32.6712 11.233 32.3349 10.4076 32.3349C9.57947 32.3349 8.82912 32.6684 8.28998 33.2076V33.2103C7.74806 33.7522 7.41457 34.4998 7.41457 35.328C7.41457 36.1534 7.75084 36.9037 8.28998 37.4456V37.4484C8.82912 37.9876 9.57669 38.321 10.4076 38.321C11.233 38.321 11.9834 37.9848 12.5253 37.4456C13.0672 36.9065 13.4007 36.1561 13.4007 35.328ZM30.4086 19.1593H33.7491L37.5814 22.9917H41.9084L39.1516 11.5891C38.9849 10.9277 38.6069 10.3636 38.0955 9.96616C37.587 9.56875 36.9478 9.33809 36.2614 9.33809V9.33531H36.1585L36.1474 9.33809H30.4058V19.1566L30.4086 19.1593ZM42.1335 24.6702H36.8866L33.0543 20.8379H30.4086V24.8981V26.5767V31.743C31.2201 31.0649 32.2623 30.6564 33.4017 30.6564C34.6884 30.6564 35.8556 31.1788 36.7032 32.0264C37.3619 32.6823 37.8232 33.5355 37.9983 34.4887H42.1335V24.6702ZM28.7301 7.6623V1.67618H1.67578V24.8981H28.7301V7.6623ZM0 24.8981V-0.00238037H30.4086V7.6623H36.1502V7.66508H36.253L36.2641 7.6623C37.3285 7.6623 38.3262 8.02636 39.1266 8.65166C39.9242 9.27417 40.5189 10.1579 40.7774 11.1917C40.7774 12.4173 43.3313 21.7605 43.8121 23.7448V36.1673H37.9983C37.826 37.1205 37.3619 37.9737 36.706 38.6323C35.8584 39.4771 34.6912 39.9996 33.4045 39.9996C32.115 39.9996 30.9478 39.4771 30.1029 38.6323C29.4443 37.9737 28.983 37.1233 28.8107 36.1673H15.007C14.8347 37.1177 14.3706 37.9709 13.7147 38.6267V38.6295C12.8699 39.4744 11.7027 39.9968 10.4132 39.9968C9.12648 39.9968 7.95927 39.4744 7.11165 38.6267C6.45301 37.9709 5.99168 37.1177 5.8166 36.1645H0.00277907V26.5739V24.8953L0 24.8981ZM15.0042 34.4887H28.7328V26.5767H1.67856V34.4887H5.81382C5.98613 33.5355 6.45023 32.6823 7.10609 32.0237C7.95371 31.1788 9.12092 30.6564 10.4076 30.6564C11.6971 30.6564 12.8643 31.1788 13.7092 32.0237V32.0264C14.365 32.6823 14.8291 33.5355 15.0014 34.4859L15.0042 34.4887ZM36.3948 35.328C36.3948 34.5026 36.0585 33.7522 35.5193 33.2103V33.2076C34.9802 32.6684 34.2326 32.3349 33.4017 32.3349C32.5763 32.3349 31.826 32.6712 31.284 33.2103C30.7421 33.7522 30.4086 34.4998 30.4086 35.328C30.4086 36.1534 30.7449 36.9037 31.284 37.4456C31.826 37.9876 32.5735 38.321 33.4017 38.321C34.2299 38.321 34.9802 37.9876 35.5193 37.4484V37.4456C36.0613 36.9037 36.3948 36.1561 36.3948 35.328Z" fill="#E57920"/>
</svg>
