<svg width="45" height="45" viewBox="0 0 45 45" fill="none" xmlns="http://www.w3.org/2000/svg">
<path d="M37.1588 22.5042C37.1297 26.5037 35.489 30.1172 32.8591 32.7277C30.2251 35.3423 26.5991 36.9568 22.6038 36.9568C18.5849 36.9568 14.9452 35.3271 12.3111 32.6917C9.67708 30.0577 8.04602 26.4165 8.04602 22.3976C8.04602 18.3788 9.67569 14.739 12.3111 12.1036C14.9465 9.46817 18.5849 7.8385 22.6038 7.8385C24.5281 7.8385 26.4193 8.22309 28.1721 8.94939C29.9276 9.67707 31.5379 10.7423 32.8992 12.1036V12.1077C34.2633 13.4801 35.3285 15.0959 36.0534 16.8543C36.7797 18.614 37.1643 20.5107 37.1643 22.4405V22.5L37.1602 22.5042H37.1588ZM31.5116 31.3733C33.7984 29.1031 35.2248 25.9683 35.251 22.5H35.2469V22.4405C35.2469 20.7528 34.9149 19.1023 34.2868 17.5792C33.6573 16.0533 32.7318 14.6491 31.5462 13.4552L31.5449 13.4566C30.3565 12.2682 28.9606 11.3413 27.4458 10.7146C25.9295 10.0866 24.2846 9.75316 22.6038 9.75316C19.1134 9.75316 15.9523 11.1684 13.6641 13.4566C11.3759 15.7448 9.96068 18.9059 9.96068 22.3963C9.96068 25.8866 11.3759 29.0478 13.6641 31.3359C15.9523 33.6241 19.1134 35.0394 22.6038 35.0394C26.0789 35.0394 29.2276 33.6393 31.513 31.3719L31.5116 31.3733Z" fill="#E57920"/>
<path d="M45 22.5C45 23.8655 44.1796 24.9348 43.3731 25.9849C42.8861 26.6185 42.4061 27.2452 42.2581 27.7944C42.1059 28.3602 42.2096 29.1681 42.3134 29.9816C42.4822 31.2972 42.6509 32.6239 41.9966 33.75C41.3464 34.8692 40.1359 35.3769 38.9254 35.8833C38.1576 36.2042 37.3898 36.5266 36.9665 36.9554C36.55 37.3787 36.2374 38.1258 35.9261 38.8742C35.4156 40.0958 34.9038 41.3215 33.7417 41.9786C32.6018 42.6247 31.311 42.4614 30.0189 42.2982C29.2082 42.1958 28.3948 42.0934 27.793 42.2567C27.2092 42.4144 26.5673 42.9069 25.9254 43.4008C24.885 44.199 23.8433 45 22.5 45C21.1539 45 20.0956 44.1893 19.0484 43.3856C18.4065 42.8944 17.7701 42.4061 17.2098 42.2581C16.6412 42.1073 15.8568 42.2083 15.0627 42.3093C13.7664 42.4753 12.4494 42.644 11.2652 41.9842C10.0575 41.3118 9.55669 40.0792 9.06004 38.8562C8.75845 38.1133 8.45825 37.3746 8.04461 36.9679C7.6199 36.5501 6.86316 36.2319 6.10505 35.9137C4.89317 35.4046 3.67714 34.8941 3.00756 33.7542C2.33937 32.6156 2.5123 31.3276 2.68523 30.03C2.79452 29.2165 2.90381 28.3989 2.74195 27.7944C2.58285 27.1981 2.09035 26.559 1.59785 25.9226C0.799619 24.8878 0 23.853 0 22.5C0 21.1346 0.82037 20.0652 1.62691 19.0152C2.11387 18.3816 2.59392 17.7549 2.74195 17.2057C2.89274 16.6426 2.79037 15.8568 2.68799 15.06C2.5206 13.7679 2.35044 12.4536 2.99234 11.2722C3.65362 10.0575 4.89732 9.55533 6.1341 9.05453C6.87838 8.75432 7.6199 8.45412 8.03631 8.03771C8.46794 7.60608 8.78612 6.8452 9.10431 6.08432C9.60926 4.87659 10.1142 3.66886 11.2472 3.00482C12.3858 2.33662 13.6738 2.50955 14.9714 2.68248C15.7849 2.79177 16.6025 2.90106 17.207 2.7392C17.8033 2.58011 18.4424 2.08761 19.0788 1.59511C20.1136 0.796872 21.1484 -0.00274658 22.5014 -0.00274658C23.8668 -0.00274658 24.9362 0.817624 25.9862 1.62416C26.6198 2.11112 27.2465 2.59117 27.7957 2.7392C28.3588 2.88999 29.1446 2.78762 29.9414 2.68525C31.2336 2.51785 32.5478 2.34769 33.7292 2.9896C34.9439 3.65088 35.4461 4.89457 35.9469 6.13274C36.2471 6.87702 36.5473 7.61853 36.9651 8.03771C37.3926 8.46519 38.1548 8.78476 38.9157 9.10156C40.1234 9.60651 41.3298 10.1101 41.9952 11.2431C42.6634 12.3817 42.4905 13.6696 42.3175 14.9673C42.2083 15.7807 42.099 16.5983 42.2608 17.2029C42.4199 17.7991 42.9138 18.4383 43.4049 19.0747C44.2031 20.1095 45.0028 21.1443 45.0028 22.4973L45 22.5ZM41.8541 24.8256C42.4642 24.0315 43.0853 23.2222 43.0853 22.5C43.0853 21.7903 42.4891 21.017 41.8914 20.245C41.28 19.4537 40.6685 18.661 40.4112 17.6995C40.1539 16.7367 40.2881 15.7268 40.4236 14.7238C40.5537 13.7499 40.6837 12.7815 40.3489 12.2115C40.01 11.6346 39.0969 11.2528 38.1825 10.871C37.2487 10.4808 36.3121 10.0893 35.6107 9.38793C34.9204 8.69622 34.5469 7.77348 34.1733 6.84658C33.8012 5.92661 33.4277 5.0011 32.8162 4.66907C32.1784 4.32184 31.1713 4.45326 30.1808 4.58054C29.1916 4.70919 28.2149 4.83509 27.3019 4.59022C26.3874 4.34535 25.6127 3.7491 24.8269 3.14593C24.0328 2.53584 23.2235 1.91468 22.5014 1.91468C21.7917 1.91468 21.0184 2.51093 20.245 3.10857C19.4537 3.72005 18.661 4.33152 17.6995 4.58884C16.7367 4.84615 15.7268 4.71196 14.7238 4.57639C13.7498 4.44634 12.7814 4.3163 12.2115 4.65109C11.6346 4.99003 11.2514 5.90447 10.8696 6.81891C10.4794 7.75273 10.0879 8.68654 9.39068 9.38516C8.6962 10.0796 7.77207 10.4532 6.84656 10.8281C5.92659 11.2002 5.00246 11.5737 4.66905 12.1852C4.32182 12.823 4.45324 13.8301 4.58052 14.8206C4.70917 15.8098 4.83507 16.7865 4.5902 17.6995C4.34533 18.614 3.74908 19.3887 3.14591 20.1745C2.53582 20.9686 1.91466 21.7779 1.91466 22.5C1.91466 23.2097 2.51091 23.9831 3.10855 24.7564C3.72003 25.5477 4.3315 26.3404 4.58882 27.3019C4.84613 28.2647 4.71194 29.2746 4.57637 30.2776C4.44632 31.2516 4.31628 32.22 4.65107 32.7899C4.99278 33.3723 5.91967 33.7611 6.8438 34.1484C7.76654 34.5358 8.6879 34.9232 9.38238 35.6066C10.0824 36.2969 10.4573 37.2141 10.8322 38.1382C11.2043 39.0527 11.5793 39.974 12.1921 40.3157C12.8313 40.6713 13.8342 40.5426 14.8234 40.4167C15.8056 40.2908 16.7768 40.1663 17.6954 40.4112C18.6278 40.6588 19.4136 41.2606 20.2063 41.8679C20.9962 42.4739 21.7945 43.0854 22.4986 43.0854C23.1986 43.0854 23.983 42.4836 24.7647 41.8832C25.556 41.2758 26.3473 40.6671 27.2977 40.4098C28.2467 40.1539 29.2525 40.2798 30.2569 40.4071C31.2322 40.5302 32.2075 40.6533 32.7968 40.3185C33.3889 39.9837 33.7735 39.061 34.1581 38.141C34.5413 37.2224 34.9245 36.3066 35.6024 35.6163C36.2983 34.9093 37.2445 34.5137 38.1894 34.118C39.1025 33.7362 40.0141 33.353 40.3406 32.7927C40.674 32.22 40.5454 31.217 40.4181 30.2209C40.2894 29.2152 40.1622 28.2149 40.407 27.3005C40.6519 26.3874 41.2482 25.6113 41.8513 24.8256H41.8541Z" fill="#E57920"/>
<path d="M23.3605 13.7167L25.5616 18.3041L32.3445 19.332L27.4416 24.2611L28.6051 31.2682L22.5014 27.9576L16.3964 31.2682L17.5598 24.2611L12.657 19.332L19.4399 18.3041L22.5014 11.9224L23.3619 13.7153L23.3605 13.7167ZM24.0619 19.5865L22.5014 16.3327L20.7196 20.0458L16.6703 20.6601L19.6045 23.6095L18.9211 27.7211L22.5 25.7801L26.079 27.7211L25.3955 23.6081L28.3298 20.6587L24.2805 20.0444L24.0605 19.5851L24.0619 19.5865Z" fill="#E57920"/>
</svg>
