<svg width="220" height="153" viewBox="0 0 220 153" fill="none" xmlns="http://www.w3.org/2000/svg">
<path d="M104.025 0.0271912C99.8677 0.259659 96.9753 2.41588 95.8736 6.5009C95.0954 9.38653 95.2049 12.4187 95.2891 15.4054C95.3346 17.1051 95.2739 18.4898 94.4451 19.9486C94.4081 20.0126 94.3356 20.0463 94.2649 20.0312C93.6837 19.9133 92.8684 19.6858 92.2704 19.792C85.1279 21.0368 78.7822 25.1758 74.6096 31.0414C74.3451 31.4137 73.8853 32.1178 73.2317 33.1572C70.1136 38.0996 66.5844 42.8955 62.966 47.6257C62.8329 47.7992 62.6695 47.9407 62.4775 48.0485C56.2716 51.5558 49.9159 54.7682 43.4068 57.6892C43.3714 57.7044 43.3815 57.7566 43.4202 57.76C43.6258 57.7802 43.838 57.7953 44.0553 57.8054C47.5204 57.9554 50.9788 58.2283 54.4304 58.6224C54.5012 58.6309 54.5366 58.7117 54.4945 58.769C52.6583 61.2183 50.625 63.9945 49.306 66.6021C46.5754 71.9944 47.0841 79.0206 48.6053 84.738C48.6743 85.0024 48.703 85.2669 48.6895 85.5331C48.3897 91.5014 48.0864 97.4647 47.7765 103.426C47.7731 103.465 47.7276 103.485 47.6973 103.46C44.8858 101.066 40.7283 99.9326 37.1992 99.1038C31.428 97.7477 25.6079 96.7538 19.7406 96.1221C19.6243 96.1103 19.5384 96.0126 19.5384 95.8964C19.5368 95.2681 19.1847 94.9682 18.6237 94.6818C17.2424 93.9743 16.0144 93.2095 14.7307 92.3386C12.684 90.9472 10.7872 92.2982 9.45643 93.853C8.47771 94.9968 7.54447 96.272 6.6584 97.6803C5.20295 99.9932 3.74919 102.306 2.29543 104.622C0.922521 106.809 0.142576 108.8 0.0078125 111.394" stroke="#7F7F7F" stroke-width="0.0972136" stroke-miterlimit="10"/>
<path d="M105.19 0.0271912C110.591 0.23439 115.693 2.72415 116.552 8.61669C116.564 8.69081 116.5 8.75651 116.426 8.74472L114.753 8.48361C114.689 8.4735 114.634 8.53246 114.652 8.59648C115.051 10.0553 115.944 13.6569 114.893 14.8714C114.826 14.9489 114.76 15.0314 114.696 15.1157C114.666 15.1544 114.664 15.1948 114.693 15.237C115.242 16.0691 116.362 18.2759 115.879 19.2479C115.537 19.9352 114.76 19.6875 114.201 19.5241C114.083 19.4904 113.967 19.5881 113.98 19.7128C114.063 20.4287 114.127 21.901 113.072 21.8859C113.02 21.8842 112.988 21.9398 113.013 21.9852C113.382 22.6439 113.466 23.6631 112.547 23.9578C112.506 23.9696 112.484 24.0134 112.494 24.0539C113.306 26.9951 111.16 27.3354 109.051 26.4813C107.981 26.0484 107.067 25.3863 105.962 26.2589C104.321 27.5544 102.753 28.9306 101.257 30.3894C101.147 30.4973 101.056 30.8358 101.058 30.9824C101.11 37.2051 100.158 44.5834 95.2462 49.0441C95.1418 49.1384 95.071 49.194 95.0727 49.349C95.1165 53.6497 100.93 55.3275 104.206 55.821C104.501 55.8665 104.816 55.8665 105.151 55.8227C107.025 55.5785 108.905 55.4824 110.795 55.533C111.95 55.565 113.274 55.6846 114.297 56.2809C115.067 56.7307 115.105 57.4433 115.099 58.2434C115.097 58.3091 115.153 58.363 115.218 58.3613L130.248 58.2097C130.286 58.2097 130.32 58.235 130.33 58.2721L133.91 71.9472C133.92 71.9876 133.945 72.0078 133.991 72.0078L219.913 71.7787C219.967 71.7787 220.007 71.831 219.994 71.8832L209.142 113.188C209.122 113.271 209.047 113.326 208.962 113.326H144.737C144.706 113.326 144.683 113.357 144.691 113.387L148.33 128.002C148.35 128.081 148.422 128.139 148.507 128.139C162.342 128.134 176.194 128.135 190.064 128.142C191.639 128.144 192.482 128.145 192.591 128.152C197.961 128.452 202.518 132.406 203.544 137.707C204.828 144.352 200.303 150.757 193.545 151.7C183.159 153.151 176.152 141.236 182.511 132.803C182.546 132.754 182.512 132.683 182.452 132.683H162.54C162.5 132.683 162.475 132.731 162.5 132.764C164.431 135.379 165.212 138.251 164.847 141.388C164.215 146.768 159.928 151.053 154.554 151.712C147.826 152.534 141.613 147.481 141.287 140.609C141.137 137.427 142.114 134.606 144.219 132.143C144.293 132.059 144.536 131.875 144.494 131.705C142.798 124.86 141.192 117.979 139.41 111.157C135.219 95.108 131.019 79.0492 126.813 62.9787C126.789 62.8928 126.712 62.8321 126.623 62.8338L113.705 62.9888C113.623 62.9905 113.547 63.0393 113.513 63.1168C113.305 63.602 112.873 64.2337 112.516 64.5251C111.108 65.6824 110.269 62.8439 108.675 63.4975C108.214 63.6862 107.838 63.7873 107.543 63.799C105.635 63.8816 102.8 63.885 99.0348 63.8058C96.6074 63.7552 94.1984 63.634 91.7946 63.2869C89.8641 63.0056 88.6226 62.32 87.0122 61.6614C86.9734 61.6445 86.933 61.6462 86.8943 61.6664C86.7157 61.7574 86.5456 61.8551 86.3771 61.9612C82.6509 64.3196 80.1089 67.5792 78.7512 71.7383C78.2711 73.2072 77.4355 74.5886 77.1138 75.9143C76.9824 76.4584 77.0464 76.9907 77.3041 77.5112C80.1813 83.3263 83.6566 90.4182 86.1901 96.8077C86.9313 98.6792 87.5984 100.667 88.0296 102.473C88.439 104.189 88.6917 105.769 88.0414 107.272C87.2312 109.142 85.9998 111.079 84.9958 112.592C82.4454 116.439 78.3789 122.243 75.4629 127.333C73.5644 130.647 71.4739 134.787 71.3661 138.642C71.3594 138.879 71.3156 139.105 71.233 139.317C70.8961 140.195 70.5929 141.084 70.3234 141.984C70.0758 142.811 69.9663 143.436 69.9949 143.862C70.0404 144.581 71.3526 145.041 72.0383 145.302C75.2894 146.537 78.8388 147.395 82.3241 147.467C83.3601 147.489 84.9301 147.743 85.0598 149.071C85.1912 150.413 83.5757 151.176 82.5094 151.399C80.1258 151.892 77.6714 151.294 75.7224 151.158C70.4548 150.786 64.9564 151.604 59.5625 151.977" stroke="#7F7F7F" stroke-width="0.0972136" stroke-miterlimit="10"/>
<path d="M58.8355 151.977C58.5711 151.968 58.3386 151.899 58.1348 151.773C58.0943 151.748 58.0741 151.714 58.0691 151.67C57.6294 147.492 57.5418 143.645 58.4599 139.551C58.7665 138.192 59.0899 137.124 59.4335 136.347C62.7555 128.812 64.755 121.491 68.2454 114.366C69.2561 112.301 70.3999 110.399 71.7425 108.576C71.7846 108.52 71.7947 108.46 71.7762 108.392C70.7587 104.858 69.6453 101.247 68.1578 97.8774C67.9017 97.2979 67.2667 95.9132 66.7108 95.6201C66.6788 95.6016 66.6367 95.6201 66.6249 95.6572C65.2789 100.337 59.9389 117.952 53.4686 117.748C52.5825 117.721 51.7082 117.607 50.8424 117.41C48.2532 116.815 45.7685 115.954 43.2804 115.036C40.378 113.963 37.4805 112.88 34.5882 111.782C31.145 110.476 27.6495 109.236 24.0699 108.359C22.2101 107.904 20.2965 107.779 18.4907 107.442C18.0089 107.353 16.3176 106.908 15.9487 107.073C13.5465 108.157 11.3347 109.408 9.31998 110.832C7.32211 112.24 5.39499 113.929 4.30677 116.165C3.97492 116.845 3.52683 118.21 2.538 118.107C0.75912 117.924 0.0650871 113.82 0.0078125 112.498" stroke="#7F7F7F" stroke-width="0.0972136" stroke-miterlimit="10"/>
<path d="M104.025 0.0255127H105.193C110.593 0.232712 115.696 2.72247 116.555 8.6167C116.567 8.69082 116.503 8.75483 116.427 8.74472L114.756 8.48193C114.692 8.47183 114.636 8.53247 114.655 8.59648C115.054 10.0536 115.947 13.6569 114.896 14.8697C114.828 14.9489 114.762 15.0314 114.698 15.1157C114.668 15.1544 114.666 15.1948 114.695 15.237C115.244 16.0691 116.364 18.2759 115.881 19.2479C115.539 19.9335 114.762 19.6875 114.203 19.5241C114.085 19.4888 113.969 19.5881 113.982 19.7111C114.065 20.4287 114.129 21.901 113.075 21.8859C113.022 21.8842 112.99 21.9398 113.016 21.9853C113.384 22.6439 113.469 23.6631 112.549 23.9579C112.509 23.9696 112.487 24.0118 112.497 24.0522C113.309 26.9951 111.163 27.3337 109.054 26.4796C107.984 26.0484 107.069 25.3847 105.964 26.2589C104.323 27.5527 102.755 28.929 101.259 30.3895C101.15 30.4973 101.059 30.8359 101.06 30.9824C101.113 37.2034 100.161 44.5834 95.2487 49.0441C95.1442 49.1385 95.0735 49.194 95.0752 49.3473C95.119 53.648 100.932 55.3275 104.209 55.821C104.504 55.8665 104.819 55.8665 105.154 55.8227C107.027 55.5785 108.907 55.4808 110.797 55.533C111.953 55.565 113.277 55.6829 114.299 56.2809C115.069 56.7307 115.108 57.4433 115.101 58.2434C115.101 58.3091 115.155 58.363 115.221 58.3613L130.25 58.208C130.289 58.208 130.323 58.235 130.333 58.2721L133.912 71.9472C133.922 71.9876 133.948 72.0078 133.993 72.0078L219.915 71.7787C219.969 71.7787 220.009 71.8293 219.996 71.8832L209.144 113.188C209.124 113.269 209.048 113.326 208.964 113.326H144.739C144.709 113.326 144.685 113.355 144.692 113.385L148.332 128.002C148.352 128.081 148.425 128.139 148.509 128.139C162.344 128.134 176.196 128.135 190.067 128.142C191.642 128.144 192.484 128.145 192.594 128.152C197.964 128.452 202.521 132.406 203.546 137.707C204.83 144.352 200.305 150.757 193.547 151.7C183.162 153.151 176.154 141.236 182.513 132.803C182.55 132.754 182.515 132.684 182.453 132.684H162.543C162.502 132.684 162.477 132.731 162.502 132.764C164.433 135.379 165.215 138.251 164.849 141.386C164.217 146.768 159.93 151.053 154.558 151.712C147.828 152.534 141.616 147.481 141.289 140.609C141.139 137.427 142.116 134.606 144.222 132.143C144.294 132.059 144.538 131.875 144.498 131.705C142.8 124.86 141.195 117.979 139.412 111.157C135.221 95.108 131.022 79.0492 126.815 62.9787C126.792 62.8928 126.714 62.8321 126.625 62.8321L113.708 62.9888C113.625 62.9888 113.55 63.0393 113.516 63.1151C113.307 63.602 112.874 64.232 112.519 64.5251C111.11 65.6824 110.27 62.8439 108.678 63.4975C108.216 63.6845 107.841 63.7856 107.546 63.7991C105.637 63.8816 102.802 63.8833 99.0372 63.8058C96.6098 63.7553 94.2009 63.634 91.7953 63.2869C89.8665 63.0056 88.625 62.32 87.0146 61.6614C86.9759 61.6445 86.9354 61.6462 86.8967 61.6664C86.7198 61.7574 86.5463 61.8551 86.3795 61.9612C82.6533 64.3196 80.1113 67.5775 78.7536 71.7383C78.2735 73.2072 77.438 74.5869 77.1162 75.9143C76.9848 76.4584 77.0488 76.989 77.3066 77.5113C80.1838 83.3263 83.6607 90.4182 86.1926 96.806C86.9338 98.6776 87.6008 100.667 88.0321 102.471C88.4414 104.189 88.6941 105.77 88.0439 107.272C87.2336 109.142 86.0022 111.079 84.9982 112.592C82.4478 116.439 78.3813 122.243 75.4654 127.333C73.5669 130.647 71.4764 134.787 71.3685 138.642C71.3618 138.879 71.318 139.105 71.2355 139.317C70.8986 140.195 70.5953 141.084 70.3258 141.984C70.0782 142.811 69.9687 143.436 69.9973 143.862C70.0428 144.581 71.3551 145.041 72.0424 145.302C75.2902 146.537 78.8412 147.395 82.3265 147.467C83.3625 147.489 84.9325 147.743 85.0622 149.071C85.1936 150.413 83.5781 151.176 82.5118 151.399C80.1282 151.892 77.6738 151.294 75.7248 151.158C70.4522 150.786 64.9487 151.606 59.5515 151.978H58.8877C58.6031 151.977 58.3521 151.909 58.1348 151.773C58.0943 151.748 58.0741 151.714 58.0691 151.67C57.6294 147.492 57.5418 143.645 58.4599 139.551C58.7648 138.19 59.0899 137.124 59.4319 136.347C62.7555 128.812 64.755 121.491 68.2454 114.366C69.2561 112.3 70.3999 110.399 71.7425 108.576C71.7846 108.52 71.7947 108.458 71.7762 108.392C70.7587 104.858 69.6453 101.247 68.1578 97.8774C67.9017 97.2979 67.2667 95.9115 66.7125 95.6184C66.6788 95.6016 66.6367 95.6184 66.6249 95.6555C65.2789 100.337 59.9389 117.952 53.4686 117.748C52.5842 117.721 51.7082 117.607 50.8424 117.41C48.2532 116.815 45.7685 115.954 43.2804 115.036C40.378 113.963 37.4805 112.88 34.5882 111.782C31.145 110.476 27.6495 109.236 24.0699 108.359C22.2101 107.904 20.2965 107.779 18.4907 107.442C18.0089 107.353 16.3176 106.908 15.9487 107.073C13.5465 108.157 11.3347 109.408 9.31998 110.832C7.32211 112.24 5.39499 113.929 4.30677 116.165C3.97492 116.845 3.52683 118.21 2.538 118.107C0.75912 117.924 0.0650871 113.82 0.0078125 112.498V111.394C0.142576 108.8 0.922521 106.809 2.29543 104.621C3.74919 102.306 5.20295 99.9932 6.6584 97.6803C7.54447 96.272 8.47771 94.9968 9.45643 93.8513C10.7872 92.2982 12.684 90.9472 14.7307 92.3369C16.0144 93.2095 17.2424 93.9743 18.6237 94.6818C19.1847 94.9682 19.5368 95.268 19.5384 95.8964C19.5384 96.0126 19.6243 96.1103 19.7406 96.1221C25.6079 96.7538 31.428 97.7477 37.1992 99.1021C40.7283 99.9309 44.8858 101.066 47.6973 103.46C47.7276 103.485 47.7731 103.463 47.7765 103.425C48.0848 97.4647 48.3897 91.4997 48.6895 85.5314C48.703 85.2669 48.6743 85.0007 48.6053 84.738C47.0841 79.0189 46.5754 71.9944 49.306 66.6021C50.625 63.9928 52.6583 61.2166 54.4944 58.7673C54.5366 58.7117 54.5012 58.6309 54.4304 58.6224C50.9788 58.2283 47.5204 57.9554 44.0553 57.8038C43.838 57.7953 43.6258 57.7802 43.4202 57.76C43.3815 57.7566 43.3714 57.7044 43.4068 57.6892C49.9159 54.7682 56.2716 51.5541 62.4775 48.0485C62.6696 47.9407 62.833 47.7992 62.966 47.6257C66.5844 42.8938 70.1119 38.0979 73.2317 33.1555C73.8853 32.1178 74.3451 31.412 74.6096 31.0414C78.7822 25.1741 85.1279 21.0369 92.2721 19.7903C92.8684 19.6858 93.6837 19.9116 94.2649 20.0312C94.3356 20.0447 94.4081 20.0126 94.4451 19.9486C95.2739 18.4881 95.3346 17.1051 95.2891 15.4054C95.2049 12.4187 95.0954 9.38653 95.8736 6.50091C96.9753 2.4142 99.8677 0.25798 104.025 0.0255127ZM199.345 88.7674C199.327 88.8331 199.377 88.8954 199.445 88.8954L210.768 88.7404C210.815 88.7387 210.854 88.7084 210.866 88.6629L214.077 76.4837C214.095 76.418 214.045 76.354 213.979 76.354L202.664 76.391C202.618 76.391 202.576 76.423 202.564 76.4668L199.345 88.7674ZM176.29 89.2357L196.023 88.9645C196.087 88.9628 196.145 88.919 196.161 88.855C197.229 84.7868 198.297 80.7001 199.37 76.5949C199.382 76.5528 199.382 76.5123 199.372 76.4736C199.362 76.4331 199.327 76.4045 199.285 76.4045L176.297 76.4685C176.253 76.4685 176.23 76.4904 176.23 76.5359V89.175C176.23 89.2087 176.258 89.2374 176.29 89.2357ZM155.309 89.4631C155.321 89.5052 155.36 89.5355 155.404 89.5355L173.085 89.2778C173.137 89.2761 173.181 89.2323 173.181 89.1801L173.182 76.5645C173.182 76.5106 173.139 76.4668 173.085 76.4668L152.055 76.5157C151.993 76.5157 151.945 76.5763 151.962 76.637L155.309 89.4631ZM138.573 89.7124C138.584 89.7528 138.621 89.7815 138.663 89.7798L152.089 89.5911C152.148 89.5911 152.191 89.5355 152.176 89.4766L148.807 76.6083C148.797 76.5662 148.762 76.5393 148.718 76.5393L135.265 76.5814C135.204 76.5814 135.162 76.6387 135.177 76.6959L138.573 89.7124ZM198.616 91.9596C198.558 91.9613 198.508 92 198.493 92.0556L194.165 108.586C194.145 108.669 194.206 108.748 194.29 108.748H205.487C205.546 108.748 205.597 108.709 205.612 108.652L210.013 91.9647C210.034 91.8821 209.971 91.8013 209.885 91.8029L198.616 91.9596ZM190.902 108.748C190.941 108.748 190.976 108.721 190.985 108.682L195.299 92.1213C195.314 92.0657 195.272 92.0118 195.215 92.0118L176.316 92.283C176.269 92.2847 176.23 92.3218 176.23 92.3706V108.66C176.23 108.709 176.269 108.748 176.317 108.748H190.902ZM173.075 108.748C173.142 108.748 173.194 108.696 173.194 108.63L173.184 92.4532C173.184 92.3892 173.13 92.3353 173.065 92.3353L156.273 92.5711C156.197 92.5728 156.14 92.6469 156.16 92.721L160.326 108.66C160.338 108.711 160.387 108.748 160.441 108.748H173.075ZM143.511 108.67C143.523 108.716 143.565 108.748 143.614 108.748H157.071C157.141 108.748 157.191 108.684 157.174 108.616L153.002 92.7008C152.992 92.6553 152.948 92.6216 152.901 92.6233L139.505 92.817C139.436 92.8187 139.387 92.8827 139.404 92.9484L143.511 108.67ZM160.348 139.944C160.348 135.935 157.097 132.682 153.086 132.682C149.077 132.682 145.825 135.935 145.825 139.944C145.825 143.955 149.077 147.206 153.086 147.206C157.097 147.206 160.348 143.955 160.348 139.944ZM199.16 139.942C199.16 135.933 195.909 132.682 191.898 132.682C187.889 132.682 184.637 135.933 184.637 139.942C184.637 143.953 187.889 147.204 191.898 147.204C195.909 147.204 199.16 143.953 199.16 139.942Z" fill="#B9B9B9"/>
</svg>
