<svg width="80" height="75" viewBox="0 0 80 75" fill="none" xmlns="http://www.w3.org/2000/svg">
<g clip-path="url(#clip0_684_463)">
<path d="M59.8702 64.9287C57.0809 64.9287 54.8574 67.1521 54.8574 69.9011C54.8574 72.65 57.0809 74.9138 59.8702 74.9138C62.6192 74.9138 64.8426 72.65 64.8426 69.9011C64.8426 67.1521 62.6192 64.9287 59.8702 64.9287ZM34.9277 64.9287C32.1787 64.9287 29.9149 67.1521 29.9149 69.9011C29.9149 72.65 32.1787 74.9138 34.9277 74.9138C37.6766 74.9138 39.9 72.65 39.9 69.9011C39.9 67.1521 37.6766 64.9287 34.9277 64.9287ZM67.3489 49.9713C67.3489 52.7202 65.0851 54.9436 62.3362 54.9436H34.9277C32.1787 54.9436 29.9149 52.7202 29.9149 49.9713L25.7511 25.0287H73.5745L67.3489 49.9713ZM24.8617 20.0564L18.6362 0.0861816H2.50638C1.13191 0.0861816 0 1.2181 0 2.59256C0 3.96703 1.13191 5.05852 2.50638 5.05852H14.9574L19.9702 20.0564L24.9426 49.9713C24.9426 55.4692 29.3894 59.9564 34.9277 59.9564H62.3362C67.8745 59.9564 72.3213 55.4692 72.3213 49.9713L79.8 20.0564H24.8617Z" fill="#B9B9B9"/>
</g>
<defs>
<clipPath id="clip0_684_463">
<rect width="79.8" height="75" fill="white"/>
</clipPath>
</defs>
</svg>
