<svg width="71" height="75" viewBox="0 0 71 75" fill="none" xmlns="http://www.w3.org/2000/svg">
<g clip-path="url(#clip0_1025_265)">
<path d="M7.51935 60.005L15.0107 44.9975V25.0041C15.0107 13.9532 23.9655 4.99835 35.0165 4.99835C46.0674 4.99835 55.0222 13.9532 55.0222 25.0041V44.9975L62.5136 60.005H7.51935ZM35.0165 70.0017C31.7545 70.0017 29.0135 67.9056 27.9716 65.0033H42.0613C41.0194 67.9056 38.2784 70.0017 35.0165 70.0017ZM60.0206 44.9975V25.0041C60.0206 11.1998 48.8208 0 35.0165 0C21.2121 0 10.0123 11.1998 10.0123 25.0041V44.9975L0.015625 65.0033H22.7748C23.9283 70.7086 28.9639 75 35.0165 75C41.069 75 46.1046 70.7086 47.2705 65.0033H70.0173L60.0206 44.9975Z" fill="#B9B9B9"/>
</g>
<defs>
<clipPath id="clip0_1025_265">
<rect width="70.0403" height="75" fill="white"/>
</clipPath>
</defs>
</svg>
