<svg width="61" height="75" viewBox="0 0 61 75" fill="none" xmlns="http://www.w3.org/2000/svg">
<g clip-path="url(#clip0_673_2)">
<path d="M56.2234 67.9607C56.2234 69.2455 55.1687 70.3001 53.8839 70.3001C52.58 70.3001 51.5445 69.2455 51.5445 67.9607V44.5279C51.5445 43.2431 52.58 42.1885 53.8839 42.1885C55.1687 42.1885 56.2234 43.2431 56.2234 44.5279V67.9607ZM56.2234 37.5096H51.5445C48.9557 37.5096 46.8464 39.5997 46.8464 42.1885V70.3001C46.8464 72.8889 48.9557 74.979 51.5445 74.979H56.2234C58.8121 74.979 60.9023 72.8889 60.9023 70.3001V42.1885C60.9023 39.5997 58.8121 37.5096 56.2234 37.5096ZM9.37695 67.9607C9.37695 69.2455 8.32229 70.3001 7.01833 70.3001C5.73356 70.3001 4.67889 69.2455 4.67889 67.9607V28.1326C4.67889 26.8478 5.73356 25.7932 7.01833 25.7932C8.32229 25.7932 9.37695 26.8478 9.37695 28.1326V67.9607ZM9.37695 21.0951H4.67889C2.09016 21.0951 0 23.2044 0 25.7932V70.3001C0 72.8889 2.09016 74.979 4.67889 74.979H9.37695C11.9657 74.979 14.0558 72.8889 14.0558 70.3001V25.7932C14.0558 23.2044 11.9657 21.0951 9.37695 21.0951ZM32.7906 67.9607C32.7906 69.2455 31.7551 70.3001 30.4511 70.3001C29.1664 70.3001 28.1117 69.2455 28.1117 67.9607V7.03927C28.1117 5.75449 29.1664 4.69982 30.4511 4.69982C31.7551 4.69982 32.7906 5.75449 32.7906 7.03927V67.9607ZM32.7906 0.0209351H28.1117C25.523 0.0209351 23.4328 2.11109 23.4328 4.69982V70.3001C23.4328 72.8889 25.523 74.979 28.1117 74.979H32.7906C35.3793 74.979 37.4886 72.8889 37.4886 70.3001V4.69982C37.4886 2.11109 35.3793 0.0209351 32.7906 0.0209351Z" fill="#B9B9B9"/>
</g>
<defs>
<clipPath id="clip0_673_2">
<rect width="60.9023" height="75" fill="white"/>
</clipPath>
</defs>
</svg>
