<svg width="80" height="75" viewBox="0 0 80 75" fill="none" xmlns="http://www.w3.org/2000/svg">
<g clip-path="url(#clip0_673_8)">
<path d="M69.7758 34.0473L39.8526 69.7251L10.0252 33.9514C6.47661 28.9642 5.03799 25.6074 5.03799 21.0038C5.03799 12.468 11.1761 4.69949 19.9996 4.69949C27.1927 4.60358 35.4408 11.9885 39.8526 17.6471C44.1684 12.1803 52.5124 4.69949 59.8014 4.69949C68.4331 4.69949 74.7631 12.468 74.7631 21.0038C74.7631 25.6074 73.6122 29.156 69.7758 34.0473ZM59.8014 0C51.4574 0 45.2234 4.8913 39.8526 9.97442C34.7695 4.60358 28.2477 0 19.9996 0C8.29886 0 0.0507812 10.0703 0.0507812 21.0038C0.0507812 26.8542 2.44848 31.0742 5.1339 35.1023L36.0163 72.2187C39.5648 75.8632 40.1403 75.8632 43.6889 72.2187L74.6672 35.1023C77.7362 31.0742 79.7503 26.8542 79.7503 21.0038C79.7503 10.0703 71.5022 0 59.8014 0Z" fill="#B9B9B9"/>
</g>
<defs>
<clipPath id="clip0_673_8">
<rect width="79.8" height="75" fill="white"/>
</clipPath>
</defs>
</svg>
