<svg width="17" height="22" viewBox="0 0 17 22" fill="none" xmlns="http://www.w3.org/2000/svg">
<path d="M15.5099 19.1961C15.5099 19.5505 15.219 19.8415 14.8645 19.8415C14.5048 19.8415 14.2192 19.5505 14.2192 19.1961V12.7319C14.2192 12.3775 14.5048 12.0865 14.8645 12.0865C15.219 12.0865 15.5099 12.3775 15.5099 12.7319V19.1961ZM15.5099 10.7958H14.2192C13.505 10.7958 12.9231 11.3724 12.9231 12.0865V19.8415C12.9231 20.5556 13.505 21.1322 14.2192 21.1322H15.5099C16.224 21.1322 16.8006 20.5556 16.8006 19.8415V12.0865C16.8006 11.3724 16.224 10.7958 15.5099 10.7958ZM2.58675 19.1961C2.58675 19.5505 2.2958 19.8415 1.93609 19.8415C1.58167 19.8415 1.29073 19.5505 1.29073 19.1961V8.20905C1.29073 7.85463 1.58167 7.56368 1.93609 7.56368C2.2958 7.56368 2.58675 7.85463 2.58675 8.20905V19.1961ZM2.58675 6.26767H1.29073C0.576596 6.26767 0 6.84955 0 7.56368V19.8415C0 20.5556 0.576596 21.1322 1.29073 21.1322H2.58675C3.30088 21.1322 3.87747 20.5556 3.87747 19.8415V7.56368C3.87747 6.84955 3.30088 6.26767 2.58675 6.26767ZM9.04568 19.1961C9.04568 19.5505 8.76002 19.8415 8.40031 19.8415C8.04589 19.8415 7.75495 19.5505 7.75495 19.1961V2.39019C7.75495 2.03577 8.04589 1.74483 8.40031 1.74483C8.76002 1.74483 9.04568 2.03577 9.04568 2.39019V19.1961ZM9.04568 0.454102H7.75495C7.04082 0.454102 6.46422 1.0307 6.46422 1.74483V19.8415C6.46422 20.5556 7.04082 21.1322 7.75495 21.1322H9.04568C9.75981 21.1322 10.3417 20.5556 10.3417 19.8415V1.74483C10.3417 1.0307 9.75981 0.454102 9.04568 0.454102Z" fill="#868686"/>
</svg>
