<svg width="22" height="22" viewBox="0 0 22 22" fill="none" xmlns="http://www.w3.org/2000/svg">
<path d="M19.2482 9.84067L10.9935 19.6828L2.76524 9.81421C1.78631 8.43843 1.38945 7.51242 1.38945 6.24247C1.38945 3.88776 3.08273 1.74471 5.5168 1.74471C7.5011 1.71826 9.77644 3.75547 10.9935 5.31646C12.1841 3.80839 14.4858 1.74471 16.4966 1.74471C18.8778 1.74471 20.624 3.88776 20.624 6.24247C20.624 7.51242 20.3065 8.49134 19.2482 9.84067ZM16.4966 0.448303C14.1948 0.448303 12.4751 1.79763 10.9935 3.19987C9.59124 1.71826 7.79213 0.448303 5.5168 0.448303C2.289 0.448303 0.0136719 3.22633 0.0136719 6.24247C0.0136719 7.85636 0.675106 9.02049 1.41591 10.1317L9.93518 20.3707C10.9141 21.3761 11.0728 21.3761 12.0518 20.3707L20.5975 10.1317C21.4441 9.02049 21.9997 7.85636 21.9997 6.24247C21.9997 3.22633 19.7244 0.448303 16.4966 0.448303Z" fill="#868686"/>
</svg>
