<svg width="24" height="22" viewBox="0 0 24 22" fill="none" xmlns="http://www.w3.org/2000/svg">
<path d="M17.6006 19.0669C16.7911 19.0669 16.1343 19.7237 16.1343 20.5332C16.1343 21.3427 16.7911 21.9995 17.6006 21.9995C18.4101 21.9995 19.0669 21.3427 19.0669 20.5332C19.0669 19.7237 18.4101 19.0669 17.6006 19.0669ZM10.2676 19.0669C9.45812 19.0669 8.80129 19.7237 8.80129 20.5332C8.80129 21.3427 9.45812 21.9995 10.2676 21.9995C11.0771 21.9995 11.7339 21.3427 11.7339 20.5332C11.7339 19.7237 11.0771 19.0669 10.2676 19.0669ZM19.8008 14.6665C19.8008 15.476 19.144 16.1328 18.3345 16.1328H10.2676C9.45812 16.1328 8.80129 15.476 8.80129 14.6665L7.57865 7.3335H21.6341L19.8008 14.6665ZM7.31256 5.86718L5.48351 0.000488281H0.735815C0.32967 0.000488281 0.00195312 0.329606 0.00195312 0.73435C0.00195312 1.14049 0.32967 1.46681 0.735815 1.46681H4.40232L5.87705 5.86718H5.86864L7.33497 14.6665C7.33497 16.2869 8.64863 17.6006 10.2676 17.6006H18.3345C19.9549 17.6006 21.2671 16.2869 21.2671 14.6665L23.4673 5.86718H7.31256Z" fill="#868686"/>
</svg>
