<svg width="17" height="22" viewBox="0 0 17 22" fill="none" xmlns="http://www.w3.org/2000/svg">
<path d="M8.27064 10.306C7.12553 10.306 6.18862 9.40379 6.18862 8.25868C6.18862 7.11356 7.12553 6.17666 8.27064 6.17666C9.41575 6.17666 10.318 7.11356 10.318 8.25868C10.318 9.40379 9.41575 10.306 8.27064 10.306ZM8.27064 4.82334C6.36212 4.82334 4.83531 6.35016 4.83531 8.25868C4.83531 10.1672 6.36212 11.694 8.27064 11.694C10.1792 11.694 11.706 10.1672 11.706 8.25868C11.706 6.35016 10.1792 4.82334 8.27064 4.82334ZM8.27064 19.9527C7.12553 19.9527 1.39998 11.1388 1.39998 8.25868C1.39998 4.44164 4.4536 1.38801 8.27064 1.38801C12.053 1.38801 15.1413 4.44164 15.1413 8.25868C15.1413 11.1041 9.38105 19.9527 8.27064 19.9527ZM8.27064 0C3.7249 0 0.0119629 3.71293 0.0119629 8.25868C0.0119629 11.694 6.88263 22.0347 8.27064 22C9.62395 22.0347 16.5293 11.6593 16.5293 8.25868C16.5293 3.71293 12.8164 0 8.27064 0Z" fill="#FEFEFE"/>
</svg>
