<svg width="20" height="16" viewBox="0 0 20 16" fill="none" xmlns="http://www.w3.org/2000/svg">
<path d="M18.7467 12.5213C18.7467 12.6419 18.7257 12.7625 18.689 12.8832L13.1253 6.89469L18.7467 2.52133V12.5213ZM2.22339 13.7379L7.86051 7.72846L10 9.33832L12.0451 7.71273L17.7766 13.7379C17.6875 13.7589 2.31253 13.7589 2.22339 13.7379ZM1.24803 12.5213V2.52133L6.87467 6.89469L1.31096 12.8832C1.27425 12.7625 1.24803 12.6419 1.24803 12.5213ZM18.1227 1.26805L10 7.51871L1.87729 1.26805H18.1227ZM17.4987 0.0200195H2.50131C1.11694 0.0200195 0 1.13696 0 2.52133V12.5213C0 13.9005 1.11694 15.0174 2.50131 15.0174H17.4987C18.8778 15.0174 20 13.9005 20 12.5213V2.52133C20 1.13696 18.8778 0.0200195 17.4987 0.0200195Z" fill="#FEFEFE"/>
</svg>
