<svg width="21" height="20" viewBox="0 0 21 20" fill="none" xmlns="http://www.w3.org/2000/svg">
<path d="M12.7503 10.8861L15.8244 13.9421L15.4266 14.3219C15.4266 14.34 11.4845 18.2821 6.63819 13.3816C1.79189 8.4991 5.67978 4.61121 5.69786 4.59313L6.07761 4.1953L9.423 7.54069L9.206 7.97468C9.13367 8.11935 9.07942 8.2821 9.04325 8.44485C9.00708 8.58951 8.97092 8.75226 8.97092 8.91501C8.97092 9.18626 9.04325 9.4575 9.13367 9.71067C9.24216 9.96383 9.40491 10.1989 9.58574 10.3797L9.65808 10.4521C9.83891 10.6148 10.0378 10.7595 10.2729 10.8499C10.5261 10.9584 10.7973 11.0127 11.0686 11.0127C11.2313 11.0127 11.3941 10.9946 11.5568 10.9584C11.7015 10.9222 11.8642 10.868 12.0089 10.7957L12.0993 10.7414L12.5876 10.7052L12.7503 10.8861ZM10.1463 1.08499C7.70509 1.08499 5.49895 2.06148 3.88954 3.67089C2.29822 5.26221 1.30365 7.48644 1.30365 9.92767C1.30365 10.651 1.39406 11.3562 1.5749 12.0615C1.75573 12.7667 2.00889 13.4358 2.35247 14.0687L2.44289 14.2495L1.4664 18.5895L5.80636 17.6311L5.98719 17.7215C6.6201 18.0651 7.30726 18.3183 8.01251 18.4991C8.69967 18.6618 9.423 18.7523 10.1644 18.7523C12.5876 18.7523 14.8118 17.7758 16.4031 16.1664C18.0125 14.575 18.989 12.3508 18.989 9.92767C18.989 7.48644 18.0125 5.26221 16.4031 3.67089C14.8118 2.06148 12.5876 1.08499 10.1644 1.08499H10.1463ZM3.13005 2.91139C4.92028 1.12116 7.41576 0 10.1463 0H10.1644C12.895 0 15.3724 1.10307 17.1626 2.91139C18.9709 4.70163 20.074 7.17902 20.074 9.92767C20.074 12.6582 18.9709 15.1356 17.1626 16.9259C15.3724 18.7342 12.895 19.8373 10.1644 19.8373C9.35066 19.8373 8.53692 19.7288 7.74126 19.5479C7.03602 19.3671 6.33077 19.0958 5.66169 18.7523L0.0559082 20L1.30365 14.3942C0.960067 13.7432 0.706903 13.038 0.526071 12.3146C0.327156 11.5371 0.23674 10.7233 0.23674 9.92767C0.23674 7.17902 1.33981 4.70163 3.13005 2.91139ZM14.2512 13.906L12.2259 11.8626C12.0812 11.9168 11.9366 11.9711 11.7919 12.0072C11.5568 12.0615 11.3217 12.0796 11.0686 12.0796C10.6527 12.0796 10.2367 12.0072 9.85699 11.8445C9.47725 11.6817 9.13367 11.4467 8.82625 11.1573L8.46459 10.7776L8.48267 10.7414C8.35609 10.5425 8.22951 10.3436 8.13909 10.1266C7.97634 9.74683 7.90401 9.33092 7.90401 8.91501C7.90401 8.67993 7.92209 8.42676 7.97634 8.19168C8.01251 8.04702 8.06676 7.90235 8.12101 7.75768L6.13186 5.76853C5.42661 6.76311 4.19696 9.38517 7.39768 12.6221C10.5984 15.859 13.2566 14.5931 14.2512 13.906Z" fill="#FEFEFE"/>
</svg>
