<svg width="20" height="20" viewBox="0 0 20 20" fill="none" xmlns="http://www.w3.org/2000/svg">
<path d="M16.2507 9.37598V10.624H17.4987V9.37598H16.2507ZM10 18.7467C5.16518 18.7467 1.24803 14.8296 1.24803 10C1.24803 5.16518 5.16518 1.24803 10 1.24803C14.8296 1.24803 18.7467 5.16518 18.7467 10C18.7467 14.8296 14.8296 18.7467 10 18.7467ZM10 0C4.47824 0 0 4.47824 0 10C0 15.5218 4.47824 20 10 20C15.5218 20 20 15.5218 20 10C20 4.47824 15.5218 0 10 0ZM13.7965 5.17042L14.6618 6.03566L15.527 5.17042L14.6618 4.30519L13.7965 5.17042ZM13.613 14.237L14.4992 15.118L15.3802 14.237L14.4992 13.3508L13.613 14.237ZM10 2.50131C9.65391 2.50131 9.37598 2.77923 9.37598 3.12533V9.38647H4.37336C4.02727 9.38647 3.74934 9.66964 3.74934 10.0157C3.74934 10.3618 4.02727 10.6397 4.37336 10.6397H10C10.3461 10.6397 10.624 10.3618 10.624 10.0157V3.12533C10.624 2.77923 10.3461 2.50131 10 2.50131ZM6.05663 5.20189L5.17567 4.31568L4.28946 5.20189L5.17567 6.08285L6.05663 5.20189ZM4.20556 14.2685L5.07079 15.1337L5.93603 14.2685L5.07079 13.4033L4.20556 14.2685ZM9.37598 17.4987H10.624V16.2507H9.37598V17.4987Z" fill="#FEFEFE"/>
</svg>
