<svg width="25" height="25" viewBox="0 0 25 25" fill="none" xmlns="http://www.w3.org/2000/svg">
<path d="M10.5158 19.1121C5.60528 19.1121 1.61328 15.1908 1.61328 10.3509C1.61328 5.52285 5.60528 1.58973 10.5158 1.58973C15.4381 1.58973 19.4183 5.52285 19.4183 10.3509C19.4183 15.1908 15.4381 19.1121 10.5158 19.1121ZM24.7645 23.6458L18.3114 17.2869C19.9953 15.4498 21.0433 13.024 21.0433 10.3509C21.0433 4.63966 16.333 0 10.5158 0C4.71032 0 0 4.63966 0 10.3509C0 16.0622 4.71032 20.7018 10.5158 20.7018C13.024 20.7018 15.3321 19.8304 17.1455 18.3938L23.6222 24.7645C23.9402 25.0824 24.4465 25.0824 24.7645 24.7645C25.0824 24.4583 25.0824 23.952 24.7645 23.6458Z" fill="#B9B9B9"/>
</svg>
