<svg width="65" height="61" viewBox="0 0 65 61" fill="none" xmlns="http://www.w3.org/2000/svg">
<path d="M7.93256 22.7402C7.93256 23.2683 7.50348 23.6973 6.96438 23.6973C6.43628 23.6973 6.0072 23.2683 6.0072 22.7402C6.0072 22.2011 6.43628 21.772 6.96438 21.772C7.50348 21.772 7.93256 22.2011 7.93256 22.7402Z" fill="#FEFEFE"/>
<path d="M7.64641 27.383C7.27234 27.7461 6.66723 27.7131 6.27116 27.328C5.88608 26.9319 5.87508 26.3048 6.24915 25.9418C6.62322 25.5787 7.22833 25.6117 7.62441 25.9968C8.00948 26.3928 8.02048 27.02 7.64641 27.383Z" fill="#FEFEFE"/>
<path d="M7.64641 31.3107C7.27234 31.6848 6.66723 31.6518 6.27116 31.2557C5.88608 30.8597 5.87508 30.2435 6.24915 29.8805C6.62322 29.5174 7.22833 29.5504 7.62441 29.9355C8.00948 30.3316 8.02048 30.9477 7.64641 31.3107Z" fill="#FEFEFE"/>
<path d="M7.64641 35.2494C7.27234 35.6125 6.66723 35.5905 6.27116 35.1944C5.88608 34.7984 5.87508 34.1823 6.24915 33.8192C6.62322 33.4561 7.22833 33.4781 7.62441 33.8742C8.00948 34.2703 8.02048 34.8864 7.64641 35.2494Z" fill="#FEFEFE"/>
<path d="M7.64641 39.1881C7.27234 39.5512 6.66723 39.5182 6.27116 39.1331C5.88608 38.737 5.87508 38.1209 6.24915 37.7578C6.62322 37.3838 7.22833 37.4168 7.62441 37.8129C8.00948 38.2089 8.02048 38.825 7.64641 39.1881Z" fill="#FEFEFE"/>
<path d="M7.64641 43.1269C7.27234 43.49 6.66723 43.457 6.27116 43.0719C5.88608 42.6758 5.87508 42.0487 6.24915 41.6857C6.62322 41.3226 7.22833 41.3556 7.62441 41.7407C8.00948 42.1367 8.02048 42.7639 7.64641 43.1269Z" fill="#FEFEFE"/>
<path d="M11.8822 46.3395C11.8822 46.8786 11.4311 47.3297 10.892 47.3297C10.3529 47.3297 9.91284 46.8786 9.91284 46.3395C9.91284 45.8004 10.3529 45.3604 10.892 45.3604C11.4311 45.3604 11.8822 45.8004 11.8822 46.3395Z" fill="#FEFEFE"/>
<path d="M15.788 46.3505C15.788 46.8896 15.3369 47.3407 14.7978 47.3407C14.2587 47.3407 13.8186 46.8896 13.8186 46.3505C13.8186 45.8114 14.2587 45.3713 14.7978 45.3713C15.3369 45.3713 15.788 45.8114 15.788 46.3505Z" fill="#FEFEFE"/>
<path d="M19.7157 46.3505C19.7157 46.8896 19.2756 47.3407 18.7365 47.3407C18.1974 47.3407 17.7463 46.8896 17.7463 46.3505C17.7463 45.8114 18.1974 45.3713 18.7365 45.3713C19.2756 45.3713 19.7157 45.8114 19.7157 46.3505Z" fill="#FEFEFE"/>
<path d="M23.6544 46.3505C23.6544 46.8896 23.2143 47.3407 22.6752 47.3407C22.1251 47.3407 21.6851 46.8896 21.6851 46.3505C21.6851 45.8114 22.1251 45.3713 22.6752 45.3713C23.2143 45.3713 23.6544 45.8114 23.6544 46.3505Z" fill="#FEFEFE"/>
<path d="M27.5931 46.3505C27.5931 46.8896 27.1421 47.3407 26.603 47.3407C26.0639 47.3407 25.6238 46.8896 25.6238 46.3505C25.6238 45.8114 26.0639 45.3713 26.603 45.3713C27.1421 45.3713 27.5931 45.8114 27.5931 46.3505Z" fill="#FEFEFE"/>
<path d="M39.4424 46.3285C39.4424 46.8786 39.0023 47.3077 38.4632 47.3077C37.9241 47.3077 37.484 46.8786 37.484 46.3285C37.484 45.7894 37.9241 45.3604 38.4632 45.3604C39.0023 45.3604 39.4424 45.7894 39.4424 46.3285Z" fill="#FEFEFE"/>
<path d="M43.337 46.3505C43.337 46.8896 42.886 47.3407 42.3469 47.3407C41.8078 47.3407 41.3677 46.8896 41.3677 46.3505C41.3677 45.8114 41.8078 45.3713 42.3469 45.3713C42.886 45.3713 43.337 45.8114 43.337 46.3505Z" fill="#FEFEFE"/>
<path d="M47.2648 46.3505C47.2648 46.8896 46.8247 47.3407 46.2856 47.3407C45.7465 47.3407 45.3064 46.8896 45.3064 46.3505C45.3064 45.8114 45.7465 45.3713 46.2856 45.3713C46.8247 45.3713 47.2648 45.8114 47.2648 46.3505Z" fill="#FEFEFE"/>
<path d="M51.2035 46.3505C51.2035 46.8896 50.7634 47.3407 50.2243 47.3407C49.6852 47.3407 49.2341 46.8896 49.2341 46.3505C49.2341 45.8114 49.6852 45.3713 50.2243 45.3713C50.7634 45.3713 51.2035 45.8114 51.2035 46.3505Z" fill="#FEFEFE"/>
<path d="M55.1422 46.3505C55.1422 46.8896 54.7021 47.3407 54.152 47.3407C53.6129 47.3407 53.1729 46.8896 53.1729 46.3505C53.1729 45.8114 53.6129 45.3713 54.152 45.3713C54.7021 45.3713 55.1422 45.8114 55.1422 46.3505Z" fill="#FEFEFE"/>
<path d="M59.0809 34.5344C59.0809 35.0845 58.6299 35.5245 58.0908 35.5245C57.5517 35.5245 57.1116 35.0845 57.1116 34.5344C57.1116 33.9953 57.5517 33.5552 58.0908 33.5552C58.6299 33.5552 59.0809 33.9953 59.0809 34.5344Z" fill="#FEFEFE"/>
<path d="M59.0919 30.6176C59.0919 31.1567 58.6518 31.5968 58.1127 31.5968C57.5736 31.5968 57.1335 31.1567 57.1335 30.6176C57.1335 30.0785 57.5736 29.6494 58.1127 29.6494C58.6518 29.6494 59.0919 30.0785 59.0919 30.6176Z" fill="#FEFEFE"/>
<path d="M59.0809 26.6679C59.0809 27.218 58.6299 27.6581 58.0908 27.6581C57.5517 27.6581 57.1116 27.218 57.1116 26.6679C57.1116 26.1288 57.5517 25.6887 58.0908 25.6887C58.6299 25.6887 59.0809 26.1288 59.0809 26.6679Z" fill="#FEFEFE"/>
<path d="M59.0919 22.7511C59.0919 23.2902 58.6739 23.7083 58.1458 23.7083C57.6067 23.7083 57.1886 23.2902 57.1886 22.7511C57.1886 22.223 57.6067 21.8049 58.1458 21.8049C58.6739 21.8049 59.0919 22.223 59.0919 22.7511Z" fill="#FEFEFE"/>
<path d="M60.0711 12.2332C60.0711 12.5963 59.7851 12.8823 59.433 12.8823H22.3342C21.9821 12.8823 21.696 12.5963 21.696 12.2332V5.643C21.696 5.29094 21.9821 5.00488 22.3342 5.00488H59.433C59.7851 5.00488 60.0711 5.29094 60.0711 5.643V12.2332ZM58.1018 7.56836C58.1018 7.2383 57.8377 6.97425 57.5077 6.97425H24.2595C23.9295 6.97425 23.6654 7.2383 23.6654 7.56836V10.3189C23.6654 10.6489 23.9295 10.913 24.2595 10.913H57.5077C57.8377 10.913 58.1018 10.6489 58.1018 10.3189V7.56836Z" fill="#FEFEFE"/>
<path d="M31.4768 29.7594C31.4768 29.5614 31.2348 29.4734 31.0918 29.6164L24.2375 36.6027C23.9845 36.8558 23.5554 36.8228 23.3353 36.5367L22.8733 35.8986C22.6972 35.6675 22.7302 35.3375 22.9393 35.1394L32.082 25.9747C32.324 25.7327 32.7201 25.7327 32.9511 25.9747L42.2038 35.2385C42.4459 35.4805 42.4239 35.8876 42.1378 36.0856L41.5877 36.5037C41.3127 36.7127 40.9276 36.6797 40.6855 36.4377L33.9413 29.6494C33.7763 29.4844 33.4902 29.6054 33.4902 29.8365C33.5342 37.978 33.5122 46.0975 33.4462 54.195C33.3802 62.3035 23.4124 60.3781 18.1314 59.916C17.8343 59.883 17.6033 59.652 17.5593 59.3549C17.0862 55.2512 31.4658 62.5785 31.5209 53.6889C31.5649 45.6904 31.5539 37.7249 31.4768 29.7594Z" fill="#E57920"/>
<path d="M62.0625 17.8003H2.42049C2.18945 17.8003 2.01341 17.9763 2.01341 18.1963V50.7623C2.01341 51.0374 2.23346 51.2464 2.50851 51.2464H26.867C27.1641 51.2464 27.4391 51.4335 27.5491 51.7195C27.9012 52.6547 27.5051 53.1608 26.5479 53.1718C17.9003 53.2928 9.26375 53.2708 0.605155 53.1058C0.330104 53.0948 0.121065 52.8747 0.121065 52.5997C-0.0219611 27.9001 -0.0329631 11.7161 0.0660552 4.03671C0.110063 1.18719 2.32147 0.130993 4.99497 0.130993C23.5004 0.0319749 41.9948 0.0429769 60.5002 0.197005C64.0099 0.219009 64.901 1.68228 64.923 4.93888C65.022 20.8258 65.0331 36.7237 64.956 52.6107C64.956 52.9297 64.703 53.1828 64.3949 53.1828L38.1001 53.2378C37.748 53.2378 37.462 52.9297 37.484 52.5777L37.528 51.7745C37.55 51.4775 37.781 51.2464 38.0781 51.2464L61.8755 51.3675C62.5796 51.3675 63.1407 50.8063 63.1297 50.1242L62.9757 18.7794C62.9757 18.3394 62.2825 17.8003 62.0625 17.8003ZM62.3596 2.72747C61.8865 2.28739 61.2373 2.05635 60.5662 2.05635H3.98278C2.90458 2.05635 2.01341 2.93651 2.01341 4.02571L2.02442 15.4348C2.02442 15.6549 2.20045 15.8309 2.42049 15.8309H62.2385C62.6346 15.8309 62.9647 15.5118 62.9757 15.1158C63.0197 13.1904 63.4818 3.72866 62.3596 2.72747Z" fill="#FEFEFE"/>
<path d="M58.6518 46.0315C58.6188 45.8225 58.5418 45.6574 58.4318 45.5364C58.2008 45.3164 57.8377 45.3714 57.6947 45.6464L57.4636 46.0315C57.2546 46.4056 57.4086 46.8787 57.8047 47.0437C58.4758 47.3187 59.29 46.5046 58.6518 46.0315Z" fill="#FEFEFE"/>
<path d="M58.6518 46.0315C59.29 46.5046 58.4758 47.3187 57.8047 47.0437C57.4086 46.8787 57.2546 46.4056 57.4636 46.0315L57.6947 45.6464C57.8377 45.3714 58.2008 45.3164 58.4318 45.5364C58.5418 45.6574 58.6188 45.8225 58.6518 46.0315Z" fill="#FEFEFE"/>
<path d="M7.93256 46.3944C7.93256 46.9225 7.50348 47.3626 6.96438 47.3626C6.43628 47.3626 6.0072 46.9225 6.0072 46.3944C6.0072 45.8664 6.43628 45.4263 6.96438 45.4263C7.50348 45.4263 7.93256 45.8664 7.93256 46.3944Z" fill="#FEFEFE"/>
<path fill-rule="evenodd" clip-rule="evenodd" d="M15.0949 5.33496C17.1742 5.33496 18.8686 7.02927 18.8686 9.10866C18.8686 11.188 17.1742 12.8824 15.0949 12.8824C14.4457 12.8824 13.8296 12.7173 13.3015 12.4203C12.4434 11.9582 11.4972 11.9582 10.639 12.4203C10.1109 12.7173 9.49482 12.8824 8.8457 12.8824C6.76632 12.8824 5.08301 11.188 5.08301 9.10866C5.08301 7.02927 6.76632 5.33496 8.8457 5.33496C9.49482 5.33496 10.1109 5.49999 10.639 5.78604C11.4972 6.24813 12.4434 6.24813 13.3015 5.78604C13.8296 5.49999 14.4457 5.33496 15.0949 5.33496ZM10.9251 9.10866C10.9251 8.05246 10.0779 7.1943 9.02173 7.1943C7.96554 7.1943 7.10738 8.05246 7.10738 9.10866C7.10738 10.1649 7.96554 11.012 9.02173 11.012C10.0779 11.012 10.9251 10.1649 10.9251 9.10866ZM16.8332 9.10866C16.8332 8.05246 15.975 7.1943 14.9298 7.1943C13.8736 7.1943 13.0155 8.05246 13.0155 9.10866C13.0155 10.1649 13.8736 11.012 14.9298 11.012C15.975 11.012 16.8332 10.1649 16.8332 9.10866Z" fill="#FEFEFE"/>
<path d="M59.0919 38.4841C59.0919 39.0232 58.6518 39.4632 58.1127 39.4632C57.5736 39.4632 57.1335 39.0232 57.1335 38.4841C57.1335 37.945 57.5736 37.5049 58.1127 37.5049C58.6518 37.5049 59.0919 37.945 59.0919 38.4841Z" fill="#FEFEFE"/>
<path d="M59.092 42.4118C59.092 42.9399 58.6629 43.369 58.1348 43.369C57.5957 43.369 57.1666 42.9399 57.1666 42.4118C57.1666 41.8837 57.5957 41.4436 58.1348 41.4436C58.6629 41.4436 59.092 41.8837 59.092 42.4118Z" fill="#FEFEFE"/>
<path d="M59.092 46.3505C59.092 46.8786 58.6629 47.3187 58.1348 47.3187C57.5957 47.3187 57.1666 46.8786 57.1666 46.3505C57.1666 45.8224 57.5957 45.3823 58.1348 45.3823C58.6629 45.3823 59.092 45.8224 59.092 46.3505Z" fill="#FEFEFE"/>
</svg>
