<svg width="65" height="65" viewBox="0 0 65 65" fill="none" xmlns="http://www.w3.org/2000/svg">
<path d="M56.9046 59.1363V54.1677C56.9046 53.9728 57.0021 53.8754 57.1969 53.8754C59.2428 53.778 62.9449 54.6548 62.9449 51.5372C62.9449 43.451 63.0424 35.3648 62.9449 27.376C62.9449 26.1095 61.9707 25.525 60.8016 25.4276C57.5866 25.4276 54.3716 25.4276 51.1566 25.4276C50.9618 25.525 50.8643 25.3301 50.7669 25.1353V23.6739C50.7669 23.4791 50.9618 23.3817 51.0592 23.3817C55.3459 23.2842 58.6583 23.2842 60.8016 23.3817C64.114 23.4791 64.9908 25.7198 64.9908 28.8374C64.9908 36.0468 64.9908 43.2562 64.9908 50.4655C64.9908 52.9986 64.6011 54.9471 61.9707 55.629C61.1913 55.9213 60.2171 55.7264 59.2428 55.8239C59.048 55.9213 58.9505 56.0187 58.9505 56.2136V64.1049C58.9505 64.2023 58.7557 64.2998 58.6583 64.2023L50.5721 56.0187C50.3772 55.8239 50.1824 55.8239 49.9875 55.8239C40.3426 55.8239 30.795 55.8239 21.15 55.8239C17.935 55.8239 16.2788 54.4599 16.2788 51.2449C16.2788 45.7892 16.2788 40.3334 16.2788 34.8777C16.2788 34.6829 16.3762 34.5854 16.5711 34.5854H17.935C18.1299 34.5854 18.3247 34.6829 18.3247 34.8777C18.3247 40.6257 18.3247 46.3737 18.3247 52.1218C18.3247 52.9986 19.3964 53.778 20.3706 53.778C30.5027 53.778 40.6348 53.778 50.7669 53.778C51.4489 53.778 55.9304 58.4543 56.7098 59.2337C56.8072 59.4286 56.9046 59.3311 56.9046 59.1363Z" fill="#868686"/>
<path d="M39.5632 13.2496C39.5632 13.7368 39.076 14.2239 38.5889 14.2239H14.2329C13.7458 14.2239 13.2587 13.7368 13.2587 13.2496V13.1522C13.2587 12.6651 13.7458 12.178 14.2329 12.178H38.5889C39.076 12.178 39.5632 12.6651 39.5632 13.1522V13.2496Z" fill="#E57920"/>
<path d="M39.5632 18.4132C39.5632 18.9003 39.1735 19.3875 38.5889 19.3875H14.2329C13.7458 19.3875 13.2587 18.9003 13.2587 18.4132V18.3158C13.2587 17.7312 13.7458 17.3416 14.2329 17.3416H38.5889C39.1735 17.3416 39.5632 17.7312 39.5632 18.3158V18.4132Z" fill="#E57920"/>
<path d="M28.4568 23.3817C28.4568 23.9663 27.9697 24.356 27.4826 24.356H14.2329C13.7458 24.356 13.2587 23.9663 13.2587 23.3817C13.2587 22.7972 13.7458 22.3101 14.2329 22.3101H27.4826C27.9697 22.3101 28.4568 22.7972 28.4568 23.3817Z" fill="#E57920"/>
<path d="M14.3304 32.8319L6.43902 40.8207C6.3416 40.9181 6.14675 40.8207 6.14675 40.6258V32.7345C6.14675 32.6371 5.9519 32.4422 5.85448 32.5396C1.56782 33.1242 0.0090332 30.786 0.0090332 26.9865C0.0090332 19.29 0.0090332 11.6909 0.0090332 4.09181C0.0090332 0.974241 2.54206 0 5.36736 0C18.1299 0 30.8925 0 43.7524 0C47.0648 0 48.7211 1.36394 48.7211 4.67635C48.8185 12.2754 48.8185 19.7771 48.7211 27.2787C48.7211 30.6886 47.4545 32.4422 44.0447 32.5396C34.3997 32.5396 24.7547 32.5396 15.2072 32.5396C14.9149 32.5396 14.6226 32.6371 14.3304 32.8319ZM8.09523 30.786L8.19265 35.7546C8.19265 35.9495 8.3875 36.0469 8.58235 35.8521L13.551 30.6886C13.6484 30.5912 13.8432 30.4937 14.0381 30.4937C24.0728 30.4937 34.1075 30.4937 44.1421 30.4937C45.3112 30.4937 46.7726 29.9092 46.7726 28.5452C46.7726 20.6539 46.7726 12.6651 46.7726 4.67635C46.7726 3.40984 46.188 2.04591 44.8241 2.04591C31.477 2.04591 18.0325 2.04591 4.68539 2.04591C3.41887 2.04591 2.05494 2.63045 2.05494 3.89696C2.05494 11.8857 2.05494 19.8745 2.05494 27.8633C2.05494 31.3705 5.5622 30.3963 7.90038 30.4937C7.99781 30.4937 8.09523 30.5912 8.09523 30.786Z" fill="#E57920"/>
<path d="M7.12097 6.13782C7.12097 6.62494 6.63385 7.11206 6.14673 7.11206C5.56218 7.11206 5.17249 6.62494 5.17249 6.13782C5.17249 5.55327 5.56218 5.16357 6.14673 5.16357C6.63385 5.16357 7.12097 5.55327 7.12097 6.13782Z" fill="#E57920"/>
<path d="M11.1154 6.13782C11.1154 6.62494 10.7257 7.11206 10.1411 7.11206C9.65399 7.11206 9.16687 6.62494 9.16687 6.13782C9.16687 5.55327 9.65399 5.16357 10.1411 5.16357C10.7257 5.16357 11.1154 5.55327 11.1154 6.13782Z" fill="#E57920"/>
<path d="M15.2071 6.13782C15.2071 6.62494 14.8175 7.11206 14.2329 7.11206C13.7458 7.11206 13.2587 6.62494 13.2587 6.13782C13.2587 5.55327 13.7458 5.16357 14.2329 5.16357C14.8175 5.16357 15.2071 5.55327 15.2071 6.13782Z" fill="#E57920"/>
<path d="M19.2989 6.13782C19.2989 6.62494 18.8118 7.11206 18.3247 7.11206C17.7402 7.11206 17.3505 6.62494 17.3505 6.13782C17.3505 5.55327 17.7402 5.16357 18.3247 5.16357C18.8118 5.16357 19.2989 5.55327 19.2989 6.13782Z" fill="#E57920"/>
<path d="M23.3908 6.13782C23.3908 6.62494 22.9036 7.11206 22.3191 7.11206C21.832 7.11206 21.3448 6.62494 21.3448 6.13782C21.3448 5.55327 21.832 5.16357 22.3191 5.16357C22.9036 5.16357 23.3908 5.55327 23.3908 6.13782Z" fill="#E57920"/>
<path d="M27.3851 6.13783C27.3851 6.62495 26.9954 7.11207 26.4109 7.11207C25.9238 7.11207 25.4366 6.62495 25.4366 6.13783C25.4366 5.55328 25.9238 5.06616 26.4109 5.06616C26.9954 5.06616 27.3851 5.55328 27.3851 6.13783Z" fill="#E57920"/>
<path d="M31.477 6.13782C31.477 6.62494 30.9899 7.11206 30.5028 7.11206C29.9183 7.11206 29.5286 6.62494 29.5286 6.13782C29.5286 5.55327 29.9183 5.16357 30.5028 5.16357C30.9899 5.16357 31.477 5.55327 31.477 6.13782Z" fill="#E57920"/>
<path d="M35.5688 6.13782C35.5688 6.62494 35.0817 7.11206 34.5946 7.11206C34.0101 7.11206 33.6204 6.62494 33.6204 6.13782C33.6204 5.55327 34.0101 5.16357 34.5946 5.16357C35.0817 5.16357 35.5688 5.55327 35.5688 6.13782Z" fill="#E57920"/>
<path d="M39.5632 6.13782C39.5632 6.62494 39.1735 7.11206 38.589 7.11206C38.1019 7.11206 37.6147 6.62494 37.6147 6.13782C37.6147 5.55327 38.1019 5.16357 38.589 5.16357C39.1735 5.16357 39.5632 5.55327 39.5632 6.13782Z" fill="#E57920"/>
<path d="M43.655 6.13782C43.655 6.62494 43.2653 7.11206 42.6808 7.11206C42.0962 7.11206 41.7065 6.62494 41.7065 6.13782C41.7065 5.55327 42.0962 5.16357 42.6808 5.16357C43.2653 5.16357 43.655 5.55327 43.655 6.13782Z" fill="#E57920"/>
<path d="M7.12098 10.1322C7.12098 10.7167 6.63386 11.1064 6.14674 11.1064C5.56219 11.1064 5.07507 10.7167 5.07507 10.1322C5.07507 9.64508 5.56219 9.15796 6.14674 9.15796C6.63386 9.15796 7.12098 9.64508 7.12098 10.1322Z" fill="#E57920"/>
<path d="M7.12097 14.224C7.12097 14.7111 6.63385 15.1982 6.14673 15.1982C5.56218 15.1982 5.17249 14.7111 5.17249 14.224C5.17249 13.6395 5.56218 13.2498 6.14673 13.2498C6.63385 13.2498 7.12097 13.6395 7.12097 14.224Z" fill="#E57920"/>
<path d="M7.12098 18.3158C7.12098 18.8029 6.63386 19.29 6.14674 19.29C5.56219 19.29 5.07507 18.8029 5.07507 18.3158C5.07507 17.7312 5.56219 17.3416 6.14674 17.3416C6.63386 17.3416 7.12098 17.7312 7.12098 18.3158Z" fill="#E57920"/>
<path d="M7.12097 22.3102C7.12097 22.8947 6.63385 23.2844 6.14673 23.2844C5.56218 23.2844 5.17249 22.8947 5.17249 22.3102C5.17249 21.8231 5.56218 21.3359 6.14673 21.3359C6.63385 21.3359 7.12097 21.8231 7.12097 22.3102Z" fill="#E57920"/>
<path d="M7.12098 26.402C7.12098 26.9865 6.63386 27.3762 6.14674 27.3762C5.56219 27.3762 5.07507 26.9865 5.07507 26.402C5.07507 25.9149 5.56219 25.4277 6.14674 25.4277C6.63386 25.4277 7.12098 25.9149 7.12098 26.402Z" fill="#E57920"/>
<path d="M55.833 29.422C55.833 30.0065 55.4433 30.3962 54.8588 30.3962C54.3716 30.3962 53.8845 30.0065 53.8845 29.422C53.8845 28.9349 54.3716 28.4478 54.8588 28.4478C55.4433 28.4478 55.833 28.9349 55.833 29.422Z" fill="#868686"/>
<path d="M59.9248 29.422C59.9248 30.0065 59.4377 30.3962 58.9506 30.3962C58.366 30.3962 57.9763 30.0065 57.9763 29.422C57.9763 28.9349 58.366 28.4478 58.9506 28.4478C59.4377 28.4478 59.9248 28.9349 59.9248 29.422Z" fill="#868686"/>
<path d="M23.3908 37.6056C23.3908 38.0927 22.9036 38.5798 22.3191 38.5798C21.832 38.5798 21.3448 38.0927 21.3448 37.6056C21.3448 37.021 21.832 36.6313 22.3191 36.6313C22.9036 36.6313 23.3908 37.021 23.3908 37.6056Z" fill="#868686"/>
<path d="M55.8329 37.6056C55.8329 38.1901 55.3458 38.5798 54.8587 38.5798H30.5027C30.0156 38.5798 29.5284 38.1901 29.5284 37.6056C29.5284 37.0211 30.0156 36.5339 30.5027 36.5339H54.8587C55.3458 36.5339 55.8329 37.0211 55.8329 37.6056Z" fill="#868686"/>
<path d="M23.3908 41.6C23.3908 42.1845 22.9036 42.6716 22.3191 42.6716C21.832 42.6716 21.3448 42.1845 21.3448 41.6C21.3448 41.1129 21.832 40.6257 22.3191 40.6257C22.9036 40.6257 23.3908 41.1129 23.3908 41.6Z" fill="#868686"/>
<path d="M55.8329 42.7692C55.8329 43.3537 55.3458 43.7434 54.8587 43.7434H30.5027C30.0156 43.7434 29.5284 43.3537 29.5284 42.7692V42.6717C29.5284 42.1846 30.0156 41.6975 30.5027 41.6975H54.8587C55.3458 41.6975 55.8329 42.1846 55.8329 42.6717V42.7692Z" fill="#868686"/>
<path d="M23.3908 45.6918C23.3908 46.2763 22.9036 46.666 22.3191 46.666C21.832 46.666 21.3448 46.2763 21.3448 45.6918C21.3448 45.2046 21.832 44.7175 22.3191 44.7175C22.9036 44.7175 23.3908 45.2046 23.3908 45.6918Z" fill="#868686"/>
<path d="M44.7266 47.7377C44.7266 48.3222 44.2395 48.7119 43.6549 48.7119H30.5027C30.0156 48.7119 29.5284 48.3222 29.5284 47.7377C29.5284 47.1531 30.0156 46.7634 30.5027 46.7634H43.6549C44.2395 46.7634 44.7266 47.1531 44.7266 47.7377Z" fill="#868686"/>
<path d="M23.3908 49.7836C23.3908 50.3681 22.9036 50.7578 22.3191 50.7578C21.832 50.7578 21.3448 50.3681 21.3448 49.7836C21.3448 49.199 21.832 48.8093 22.3191 48.8093C22.9036 48.8093 23.3908 49.199 23.3908 49.7836Z" fill="#868686"/>
</svg>
