<svg width="65" height="61" viewBox="0 0 65 61" fill="none" xmlns="http://www.w3.org/2000/svg">
<path d="M7.93608 22.7401C7.93608 23.2633 7.50003 23.6994 6.97678 23.6994C6.42445 23.6994 5.9884 23.2633 5.9884 22.7401C5.9884 22.2168 6.42445 21.7808 6.97678 21.7808C7.50003 21.7808 7.93608 22.2168 7.93608 22.7401Z" fill="#868686"/>
<path d="M7.64534 27.3913C7.26743 27.7401 6.65697 27.7111 6.27906 27.3331C5.87208 26.9262 5.87208 26.3157 6.24999 25.9378C6.6279 25.589 7.23836 25.618 7.61627 25.9959C8.02325 26.4029 8.02325 27.0134 7.64534 27.3913Z" fill="#868686"/>
<path d="M7.64534 31.3156C7.26743 31.6935 6.65697 31.6354 6.27906 31.2574C5.87208 30.8505 5.87208 30.24 6.24999 29.8912C6.6279 29.5133 7.23836 29.5423 7.61627 29.9493C8.02325 30.3272 8.02325 30.9377 7.64534 31.3156Z" fill="#868686"/>
<path d="M7.64534 35.2399C7.26743 35.6178 6.65697 35.5887 6.27906 35.1818C5.87208 34.8039 5.87208 34.1643 6.24999 33.8155C6.6279 33.4376 7.23836 33.4666 7.61627 33.8736C8.02325 34.2515 8.02325 34.8911 7.64534 35.2399Z" fill="#868686"/>
<path d="M7.64534 39.1935C7.26743 39.5424 6.65697 39.5133 6.27906 39.1354C5.87208 38.7284 5.87208 38.118 6.24999 37.74C6.6279 37.3912 7.23836 37.4203 7.61627 37.7982C8.02325 38.2052 8.02325 38.8156 7.64534 39.1935Z" fill="#868686"/>
<path d="M7.64534 43.1178C7.26743 43.4957 6.65697 43.4667 6.27906 43.0597C5.87208 42.6818 5.87208 42.0423 6.24999 41.6934C6.6279 41.3155 7.23836 41.3446 7.61627 41.7516C8.02325 42.1295 8.02325 42.769 7.64534 43.1178Z" fill="#868686"/>
<path d="M11.8896 46.3446C11.8896 46.8678 11.4245 47.3329 10.9012 47.3329C10.3489 47.3329 9.91284 46.8678 9.91284 46.3446C9.91284 45.7922 10.3489 45.3562 10.9012 45.3562C11.4245 45.3562 11.8896 45.7922 11.8896 46.3446Z" fill="#868686"/>
<path d="M15.785 46.3446C15.785 46.8969 15.3489 47.3329 14.7966 47.3329C14.2443 47.3329 13.8082 46.8969 13.8082 46.3446C13.8082 45.7922 14.2443 45.3562 14.7966 45.3562C15.3489 45.3562 15.785 45.7922 15.785 46.3446Z" fill="#868686"/>
<path d="M19.7094 46.3446C19.7094 46.8969 19.2733 47.3329 18.721 47.3329C18.1978 47.3329 17.7617 46.8969 17.7617 46.3446C17.7617 45.7922 18.1978 45.3562 18.721 45.3562C19.2733 45.3562 19.7094 45.7922 19.7094 46.3446Z" fill="#868686"/>
<path d="M23.6628 46.3446C23.6628 46.8969 23.1977 47.3329 22.6744 47.3329C22.1221 47.3329 21.686 46.8969 21.686 46.3446C21.686 45.7922 22.1221 45.3562 22.6744 45.3562C23.1977 45.3562 23.6628 45.7922 23.6628 46.3446Z" fill="#868686"/>
<path d="M27.5872 46.3446C27.5872 46.8969 27.1512 47.3329 26.5988 47.3329C26.0756 47.3329 25.6105 46.8969 25.6105 46.3446C25.6105 45.7922 26.0756 45.3562 26.5988 45.3562C27.1512 45.3562 27.5872 45.7922 27.5872 46.3446Z" fill="#868686"/>
<path d="M39.4477 46.3155C39.4477 46.8678 39.0116 47.3039 38.4593 47.3039C37.907 47.3039 37.4709 46.8678 37.4709 46.3155C37.4709 45.7922 37.907 45.3562 38.4593 45.3562C39.0116 45.3562 39.4477 45.7922 39.4477 46.3155Z" fill="#868686"/>
<path d="M43.3431 46.3446C43.3431 46.8969 42.878 47.3329 42.3547 47.3329C41.8024 47.3329 41.3663 46.8969 41.3663 46.3446C41.3663 45.7922 41.8024 45.3562 42.3547 45.3562C42.878 45.3562 43.3431 45.7922 43.3431 46.3446Z" fill="#868686"/>
<path d="M47.2675 46.3446C47.2675 46.8969 46.8315 47.3329 46.2791 47.3329C45.7268 47.3329 45.2908 46.8969 45.2908 46.3446C45.2908 45.7922 45.7268 45.3562 46.2791 45.3562C46.8315 45.3562 47.2675 45.7922 47.2675 46.3446Z" fill="#868686"/>
<path d="M51.1919 46.3446C51.1919 46.8969 50.7559 47.3329 50.2036 47.3329C49.6803 47.3329 49.2443 46.8969 49.2443 46.3446C49.2443 45.7922 49.6803 45.3562 50.2036 45.3562C50.7559 45.3562 51.1919 45.7922 51.1919 46.3446Z" fill="#868686"/>
<path d="M55.1454 46.3446C55.1454 46.8969 54.6803 47.3329 54.1571 47.3329C53.6047 47.3329 53.1687 46.8969 53.1687 46.3446C53.1687 45.7922 53.6047 45.3562 54.1571 45.3562C54.6803 45.3562 55.1454 45.7922 55.1454 46.3446Z" fill="#868686"/>
<path d="M59.0698 34.5423C59.0698 35.0656 58.6337 35.5307 58.0814 35.5307C57.5581 35.5307 57.093 35.0656 57.093 34.5423C57.093 33.99 57.5581 33.554 58.0814 33.554C58.6337 33.554 59.0698 33.99 59.0698 34.5423Z" fill="#868686"/>
<path d="M59.0697 30.618C59.0697 31.1703 58.6628 31.5773 58.1104 31.5773C57.5581 31.5773 57.1221 31.1703 57.1221 30.618C57.1221 30.0657 57.5581 29.6296 58.1104 29.6296C58.6628 29.6296 59.0697 30.0657 59.0697 30.618Z" fill="#868686"/>
<path d="M59.0698 26.6644C59.0698 27.2167 58.6337 27.6528 58.0814 27.6528C57.5581 27.6528 57.093 27.2167 57.093 26.6644C57.093 26.1411 57.5581 25.676 58.0814 25.676C58.6337 25.676 59.0698 26.1411 59.0698 26.6644Z" fill="#868686"/>
<path d="M59.0989 22.7691C59.0989 23.2924 58.6629 23.6993 58.1396 23.6993C57.6163 23.6993 57.1803 23.2924 57.1803 22.7691C57.1803 22.2168 57.6163 21.8098 58.1396 21.8098C58.6629 21.8098 59.0989 22.2168 59.0989 22.7691Z" fill="#868686"/>
<path d="M60.0581 12.2459C60.0581 12.5948 59.7674 12.8855 59.4186 12.8855H22.3256C21.9767 12.8855 21.686 12.5948 21.686 12.2459V5.6471C21.686 5.29827 21.9767 5.00757 22.3256 5.00757H59.4186C59.7674 5.00757 60.0581 5.29827 60.0581 5.6471V12.2459ZM58.1105 7.56571C58.1105 7.24594 57.8198 6.98431 57.5 6.98431H24.2442C23.9244 6.98431 23.6628 7.24594 23.6628 7.56571V10.3273C23.6628 10.6471 23.9244 10.9087 24.2442 10.9087H57.5C57.8198 10.9087 58.1105 10.6471 58.1105 10.3273V7.56571Z" fill="#868686"/>
<path d="M31.4826 29.7748C31.4826 29.5713 31.221 29.4841 31.1047 29.6004L24.2442 36.6062C23.9826 36.8678 23.5466 36.8097 23.3431 36.5481L22.8779 35.9085C22.7035 35.676 22.7326 35.3271 22.9361 35.1236L32.0931 25.9667C32.3256 25.7341 32.7035 25.7341 32.9361 25.9667L42.2093 35.2399C42.4419 35.4725 42.4128 35.8794 42.1512 36.0829L41.5989 36.4899C41.3082 36.6934 40.9303 36.6643 40.6686 36.4318L33.9535 29.6585C33.7791 29.4841 33.4884 29.6004 33.4884 29.8329C33.5175 37.9725 33.5175 46.0829 33.4303 54.1934C33.3721 62.3039 23.4012 60.3562 18.1396 59.8911C17.8489 59.862 17.5872 59.6585 17.5582 59.3678C17.0931 55.2399 31.4535 62.5655 31.5117 53.6992C31.5698 45.676 31.5407 37.7108 31.4826 29.7748Z" fill="#E57920"/>
<path d="M62.064 17.7981H2.41283C2.18027 17.7981 2.00585 17.9726 2.00585 18.1761V50.7633C2.00585 51.0249 2.23841 51.2574 2.50003 51.2574H26.8605C27.1512 51.2574 27.4419 51.4319 27.5582 51.7226C27.907 52.6528 27.5 53.147 26.5407 53.176C17.907 53.2923 9.27329 53.2633 0.6105 53.0888C0.348872 53.0888 0.116313 52.8853 0.116313 52.5947C-0.0290354 27.9144 -0.0290354 11.7226 0.0581739 4.04814C0.116313 1.19931 2.32562 0.123726 5.00003 0.123726C23.4884 0.0365164 42.0058 0.0365164 60.4942 0.181865C64.0117 0.210935 64.8838 1.69349 64.9128 4.94931C65 20.8214 65.0291 36.7226 64.9419 52.5947C64.9419 52.9144 64.7093 53.176 64.3896 53.176L38.0814 53.2342C37.7326 53.2342 37.4419 52.9435 37.471 52.5656L37.5291 51.7807C37.5582 51.4609 37.7907 51.2574 38.0814 51.2574L61.8605 51.3737C62.5872 51.3737 63.1396 50.7923 63.1105 50.1237L62.9652 18.7865C62.9652 18.3505 62.2675 17.7981 62.064 17.7981ZM62.3547 2.71094C61.8896 2.30396 61.221 2.04233 60.5524 2.04233H3.98259C2.90701 2.04233 2.00585 2.94349 2.00585 4.01907L2.03492 15.4435C2.03492 15.647 2.20934 15.8214 2.41283 15.8214H62.2384C62.6454 15.8214 62.9652 15.5016 62.9652 15.1237C63.0233 13.2051 63.4884 3.72838 62.3547 2.71094Z" fill="#868686"/>
<path d="M58.6628 46.0248C58.6047 45.8213 58.5466 45.6469 58.4303 45.5306C58.1977 45.3271 57.8198 45.3562 57.6745 45.6469L57.471 46.0248C57.2384 46.4027 57.4128 46.8678 57.7907 47.0422C58.4593 47.3039 59.3024 46.519 58.6628 46.0248Z" fill="#868686"/>
<path d="M58.6628 46.0248C59.3024 46.519 58.4593 47.3039 57.7907 47.0422C57.4128 46.8678 57.2384 46.4027 57.471 46.0248L57.6745 45.6469C57.8198 45.3562 58.1977 45.3271 58.4303 45.5306C58.5466 45.6469 58.6047 45.8213 58.6628 46.0248Z" fill="#868686"/>
<path d="M7.93608 46.4027C7.93608 46.9259 7.50003 47.362 6.97678 47.362C6.42445 47.362 5.9884 46.9259 5.9884 46.4027C5.9884 45.8504 6.42445 45.4143 6.97678 45.4143C7.50003 45.4143 7.93608 45.8504 7.93608 46.4027Z" fill="#868686"/>
<path fill-rule="evenodd" clip-rule="evenodd" d="M15.0873 5.32715C17.1803 5.32715 18.8663 7.01319 18.8663 9.10622C18.8663 11.1992 17.1803 12.8853 15.0873 12.8853C14.4477 12.8853 13.8373 12.7109 13.314 12.4202C12.4419 11.9551 11.4826 11.9551 10.6396 12.4202C10.1164 12.7109 9.50588 12.8853 8.83728 12.8853C6.77333 12.8853 5.08728 11.1992 5.08728 9.10622C5.08728 7.01319 6.77333 5.32715 8.83728 5.32715C9.50588 5.32715 10.1164 5.50157 10.6396 5.79226C11.4826 6.25738 12.4419 6.25738 13.314 5.79226C13.8373 5.50157 14.4477 5.32715 15.0873 5.32715ZM10.9303 9.10622C10.9303 8.05971 10.0873 7.18761 9.0117 7.18761C7.96519 7.18761 7.12216 8.05971 7.12216 9.10622C7.12216 10.1527 7.96519 11.0248 9.0117 11.0248C10.0873 11.0248 10.9303 10.1527 10.9303 9.10622ZM16.8315 9.10622C16.8315 8.05971 15.9884 7.18761 14.9129 7.18761C13.8664 7.18761 13.0233 8.05971 13.0233 9.10622C13.0233 10.1527 13.8664 11.0248 14.9129 11.0248C15.9884 11.0248 16.8315 10.1527 16.8315 9.10622Z" fill="#868686"/>
<path d="M59.0697 38.4669C59.0697 39.0192 58.6628 39.4552 58.1104 39.4552C57.5581 39.4552 57.1221 39.0192 57.1221 38.4669C57.1221 37.9436 57.5581 37.5076 58.1104 37.5076C58.6628 37.5076 59.0697 37.9436 59.0697 38.4669Z" fill="#868686"/>
<path d="M59.0989 42.4203C59.0989 42.9435 58.6629 43.3796 58.1396 43.3796C57.5873 43.3796 57.1512 42.9435 57.1512 42.4203C57.1512 41.8679 57.5873 41.4319 58.1396 41.4319C58.6629 41.4319 59.0989 41.8679 59.0989 42.4203Z" fill="#868686"/>
<path d="M59.0989 46.3446C59.0989 46.8678 58.6629 47.3039 58.1396 47.3039C57.5873 47.3039 57.1512 46.8678 57.1512 46.3446C57.1512 45.8213 57.5873 45.3853 58.1396 45.3853C58.6629 45.3853 59.0989 45.8213 59.0989 46.3446Z" fill="#868686"/>
</svg>
