<svg width="51" height="48" viewBox="0 0 51 48" fill="none" xmlns="http://www.w3.org/2000/svg">
<path d="M10.6107 28.2174C9.06129 26.8334 8.71311 25.1708 9.56615 23.2384C9.62709 23.1079 9.6445 22.9599 9.62709 22.8206C8.76534 17.5109 8.46068 11.9313 14.7889 10.1207C17.3045 9.39826 20.0899 9.52883 22.3444 11.1218C23.032 11.6092 23.9112 11.7137 24.5205 12.1663C27.6715 14.5078 27.3147 19.3475 26.3223 22.6291C26.2875 22.7684 26.2962 22.9251 26.3572 23.0556C27.2015 25.0577 26.8533 26.816 25.3039 28.3393C25.1821 28.4524 25.1037 28.6004 25.0602 28.7658C24.7468 30.0802 24.181 31.2814 23.3628 32.3608C23.2671 32.4913 23.2235 32.648 23.241 32.8047C23.7719 37.0264 18.7668 37.5922 15.7464 36.8262C13.5441 36.2604 12.5605 34.9286 12.7781 32.8221C12.7955 32.6741 12.752 32.5175 12.665 32.3956C11.7771 31.2553 11.1591 29.967 10.8196 28.5656C10.7848 28.4263 10.7152 28.3045 10.6107 28.2174Z" fill="#868686"/>
<path d="M24.2855 36.8785C29.2645 39.3332 36.1585 40.6736 35.9496 47.8462C35.9409 47.9245 35.8712 47.9941 35.7929 47.9941H0.234962C0.113099 47.9941 0.00864504 47.8984 0.00864504 47.7765C-0.25249 40.5953 6.78946 39.4202 11.664 36.8959C11.7946 36.8263 11.9599 36.835 12.0731 36.922C16.0075 39.7597 19.942 39.7597 23.8764 36.922C23.9983 36.8263 24.155 36.8175 24.2855 36.8785Z" fill="#868686"/>
<path d="M49.8855 0.00610352H50.3729V0.580602C48.5624 7.73571 46.7693 14.8908 44.9936 22.0459C44.95 22.1939 44.8369 22.3245 44.6367 22.4376H44.4191L38.587 16.7275C38.5 16.6404 38.352 16.6491 38.2737 16.7362L34.5133 20.9927C34.3131 21.2103 34.1216 21.2103 33.9214 20.9927C33.608 20.6271 34.2696 15.5698 34.3479 14.7167C34.3566 14.6123 34.2957 14.5165 34.2 14.4904C32.2588 13.855 30.2916 13.2109 28.2983 12.5493C28.1242 12.4884 28.0372 12.3578 27.9414 12.2185V11.9922C28.011 11.9226 28.0894 11.853 28.1764 11.8094C35.3838 7.82276 42.6172 3.88832 49.8855 0.00610352ZM46.8302 4.87193C46.8476 4.95027 46.8302 5.03731 46.778 5.09825L39.0484 15.7787C39.0136 15.8309 39.0136 15.9005 39.0571 15.9354L44.1666 21.0188C44.2189 21.071 44.3059 21.0449 44.3233 20.9753L49.2152 1.41624C49.224 1.38142 49.1891 1.3553 49.163 1.37271L29.6649 11.9487C29.6127 11.9748 29.6127 12.0532 29.6736 12.0793L34.6613 13.6896C34.7396 13.707 34.818 13.6983 34.8702 13.6461C38.5783 10.643 42.2865 7.64867 45.9859 4.65432C46.3079 4.39318 46.7258 4.41059 46.8302 4.87193ZM35.2445 14.6036C35.14 16.1269 34.9572 17.6415 34.8006 19.156C34.7919 19.2083 34.8528 19.2344 34.8876 19.1996C36.585 17.389 38.0735 15.6481 39.5968 13.5155C40.9721 11.5918 42.3561 9.66812 43.7662 7.75312C43.7836 7.72701 43.7836 7.69219 43.7575 7.66608C43.7401 7.64867 43.7053 7.64867 43.6792 7.66608L35.349 14.4034C35.288 14.4556 35.2532 14.5252 35.2445 14.6036Z" fill="#6EAFE5"/>
</svg>
