<svg width="65" height="62" viewBox="0 0 65 62" fill="none" xmlns="http://www.w3.org/2000/svg">
<path d="M16.787 34.0545C16.2078 34.4156 15.0905 33.6995 14.2952 32.4321C13.4917 31.1707 13.3158 29.8539 13.8888 29.4876C14.467 29.1255 15.5843 29.8425 16.3796 31.109C17.1841 32.3703 17.36 33.6872 16.787 34.0545Z" fill="#868686"/>
<path d="M33.5854 47.5966C34.0916 48.2664 33.3385 49.1604 32.5977 48.7726C27.1307 45.9619 22.4156 42.2119 18.4414 37.5205C18.1121 37.1327 18.1245 36.5555 18.4774 36.18C19.0772 35.5329 19.7582 35.6152 20.535 36.4032C23.5329 39.4608 25.8488 41.9053 29.823 44.2808C31.3282 45.1862 32.5864 46.2911 33.5854 47.5966Z" fill="#868686"/>
<path d="M39.3723 5.66463C39.2293 6.26854 38.6182 6.64508 38.0102 6.4959L37.8507 6.45784C37.2427 6.31586 36.8775 5.70475 37.0195 5.09467L37.5328 2.96916C37.6769 2.36525 38.289 1.9887 38.896 2.13788L39.0555 2.17697C39.6645 2.31792 40.0287 2.92903 39.8878 3.53911L39.3723 5.66463Z" fill="#E57920"/>
<path d="M43.074 8.61635C42.4742 8.26759 42.5339 7.06903 43.1933 5.91574C43.861 4.76347 44.8723 4.11738 45.4721 4.46203C46.0719 4.8108 46.0133 6.01039 45.3528 7.16265C44.6841 8.31388 43.6738 8.961 43.074 8.61635Z" fill="#E57920"/>
<path d="M47.5606 12.0289C47.0833 11.5598 47.4598 10.4075 48.395 9.45281C49.3291 8.50322 50.4814 8.10301 50.9557 8.57421C51.4331 9.04334 51.0575 10.1956 50.1224 11.1503C49.1882 12.0999 48.0349 12.5001 47.5606 12.0289Z" fill="#E57920"/>
<path d="M33.292 9.69041C42.8157 9.64308 49.7519 17.2388 49.9052 26.4569C49.9165 26.8097 49.647 27.103 49.3054 27.139L48.612 27.2202C48.1418 27.2676 47.7303 26.927 47.683 26.4569C46.8476 17.5793 42.0153 12.7233 33.1861 11.8776C32.7859 11.8416 32.4803 11.5124 32.4916 11.1132V10.4898C32.504 10.0423 32.8569 9.69041 33.292 9.69041Z" fill="#E57920"/>
<path d="M55.075 14.2356C55.396 14.8518 54.7365 15.8395 53.5997 16.4444C52.4567 17.0504 51.2684 17.0504 50.9433 16.4321C50.6223 15.8158 51.2808 14.8281 52.4186 14.2232C53.5616 13.6172 54.7489 13.6172 55.075 14.2356Z" fill="#E57920"/>
<path d="M32.9156 18.8024C32.3981 18.7428 32.0925 18.2026 32.3044 17.7325L32.5267 17.25C32.716 16.8508 33.1275 16.6152 33.5616 16.6625C39.217 17.2973 42.3332 20.4362 42.9094 26.0802C42.9444 26.4681 42.7561 26.8446 42.4269 27.0318C41.3219 27.6903 40.7221 27.1028 40.5688 25.9855C39.9937 21.7181 37.4423 19.3312 32.9156 18.8024Z" fill="#E57920"/>
<path d="M53.5966 22.3179C52.7036 22.1183 52.645 20.8714 53.5143 20.5771L56.4896 19.5905C56.9835 19.4249 57.5359 19.6491 57.7705 20.107C58.0061 20.5771 57.8765 21.1533 57.4536 21.4588C56.2417 22.3415 54.9608 22.6234 53.5966 22.3179Z" fill="#E57920"/>
<path d="M39.3117 44.4217C40.0524 44.7273 40.9105 44.4927 41.4043 43.8569C43.8261 40.6831 46.1666 35.1337 51.0926 37.2499C55.0072 38.9547 58.8642 40.8003 62.6625 42.787C65.4609 44.2685 65.0956 45.9032 64.8014 48.9135C64.0257 56.967 55.7253 61.5647 48.4002 61.2592C45.9074 61.1532 42.2736 60.2468 37.5123 58.5668C23.2973 53.5452 12.5864 42.787 4.74379 30.431C-0.417732 22.3055 -2.34572 12.4526 4.00305 4.42277C7.26025 0.318864 16.0082 -2.66673 18.5123 3.88162C20.0061 7.79726 21.5576 11.6769 23.1563 15.5452C24.6502 19.1543 20.1347 22.6234 18.6296 25.3158C18.4537 25.6213 18.4537 25.9979 18.6296 26.3034C23.4382 34.7098 30.3292 40.7417 39.3117 44.4217ZM20.1697 19.3662C20.9578 18.3909 21.217 17.5442 20.9465 16.8158C19.8765 14.0051 16.4197 2.03594 12.9506 2.64705C12.7037 2.69438 12.5514 2.95364 12.645 3.17586C13.4218 5.03388 18.8889 19.1316 19.6296 19.4958C19.8168 19.5905 20.0411 19.5308 20.1697 19.3662ZM61.18 50.6892L46.0607 43.1285C45.7191 42.9639 45.3076 43.0349 45.037 43.3055C42.7448 45.6676 41.4516 47.8199 37.6769 46.2911C30.0463 43.1759 23.8858 38.2962 19.1944 31.6769C16.6779 28.1254 14.4331 25.9156 17.3477 22.3878C17.5833 22.0946 17.6543 21.6944 17.5133 21.3415L9.99996 3.14088C9.81169 2.67072 9.2119 2.52977 8.83638 2.8703C-7.64818 17.5792 12.1049 39.0606 24.0977 48.396C32.5864 55.004 49.5524 64.2098 60.1697 54.251C61.0041 53.4752 61.4979 52.6285 61.6738 51.6995C61.7572 51.288 61.5452 50.8765 61.18 50.6892ZM61.4279 44.9156C59.6286 43.9279 47.9413 36.6851 47.1296 40.3652C47.0596 40.718 47.2242 41.0822 47.5535 41.2479L61.7572 48.325C62.0514 48.466 62.4033 48.3374 62.5216 48.0431C63.0854 46.6789 62.7212 45.6326 61.4279 44.9156Z" fill="#868686"/>
</svg>
