<svg width="65" height="58" viewBox="0 0 65 58" fill="none" xmlns="http://www.w3.org/2000/svg">
<path d="M45.762 57.0658H45.1202C43.6608 55.8174 38.5442 51.7117 39.2123 49.7424C39.4497 49.0303 40.364 48.8281 40.8827 49.3556L43.8103 52.3096C43.9509 52.4502 44.1795 52.3535 44.1795 52.1601C44.1795 46.472 44.2235 40.7487 44.2938 34.9991C44.3026 34.2166 44.7334 33.777 45.5949 33.6891C46.2191 33.6276 46.7642 34.1111 46.7642 34.7441L46.7818 52.1865C46.7818 52.4502 47.1159 52.5557 47.2741 52.3447C48.0917 51.193 49.9643 48.5292 51.6083 49.7073C52.0919 50.0589 52.1798 50.7447 51.7842 51.2018C49.9116 53.3557 47.9071 55.3075 45.762 57.0658Z" fill="#FEFEFE"/>
<path d="M64.9451 39.9134V40.5552C63.5033 42.9992 61.2087 39.5002 60.0834 38.5859C59.9164 38.4452 59.8284 38.4892 59.8197 38.7002C59.7317 44.3619 59.7142 49.9973 59.7757 55.5975C59.7845 56.2129 59.4416 56.6964 58.7471 57.0657H58.0965C57.4547 56.7316 57.1382 56.2481 57.147 55.5975C57.1998 49.9621 57.1822 44.2916 57.0943 38.6035C57.0855 38.2958 56.98 38.2606 56.769 38.4804L54.1491 41.197C53.6656 41.6981 52.848 41.6805 52.3908 41.153C50.993 39.5354 56.4261 35.166 57.5866 34.0407C58.0262 33.6099 58.7383 33.5923 59.2042 33.9967C61.279 35.799 63.1868 37.7771 64.9451 39.9134Z" fill="#E57920"/>
<path d="M64.9451 0V35.6936C63.2923 34.7529 62.3252 33.6891 62.334 31.6319C62.3604 24.291 62.3604 16.9588 62.3428 9.65308C62.3428 9.50363 62.1582 9.4245 62.0439 9.52121L45.762 23.7371C45.5422 23.9305 45.551 24.2734 45.7796 24.4492L55.292 32.0275C55.4503 32.1506 55.4591 32.3792 55.3272 32.5286L54.0348 33.8737C53.8942 34.0232 53.6568 34.0407 53.4986 33.9089L43.6609 26.0756C43.4499 25.9086 43.1597 25.9174 42.9663 26.102C39.2915 29.478 35.432 33.7243 29.9285 31.9308C27.1768 31.034 24.3547 28.2383 22.0777 26.1108C21.8755 25.9262 21.559 25.9086 21.348 26.0844L2.94734 40.6344C2.76272 40.7838 2.64843 41.0212 2.64843 41.2674V43.685C2.64843 43.9048 2.83305 44.0895 3.06163 44.0895H41.1816C41.4014 44.0895 41.5861 44.2741 41.5861 44.4939V46.261C41.5861 46.4983 41.4014 46.6829 41.1641 46.6829L0.0549316 46.5599V0.0879152L64.9451 0ZM24.0821 24.6162C28.3636 28.3702 31.8363 32.2473 37.2782 27.5966C45.5862 20.4666 53.859 13.284 62.0703 6.03098C62.2461 5.87273 62.3516 5.64415 62.3516 5.39799V2.96274C62.3516 2.73416 62.167 2.55833 61.9472 2.55833H3.06163C2.83305 2.55833 2.64843 2.73416 2.64843 2.96274V5.3892C2.64843 5.61778 2.75393 5.84636 2.92976 6.0046C9.98055 12.2114 17.0313 18.4182 24.0821 24.6162ZM19.3347 23.7986C13.9543 18.9897 8.46841 14.3126 3.05284 9.53C2.89459 9.38934 2.64843 9.50363 2.64843 9.70583V37.2409C2.64843 37.3815 2.81547 37.4519 2.92097 37.3727L19.3171 24.3613C19.493 24.2206 19.5018 23.9481 19.3347 23.7986Z" fill="#FEFEFE"/>
</svg>
