<svg width="110" height="97" viewBox="0 0 110 97" fill="none" xmlns="http://www.w3.org/2000/svg">
<g clip-path="url(#clip0_1018_25)">
<path d="M55.0039 75.545C43.6231 75.545 34.4008 66.3148 34.4008 54.9418C34.4008 43.561 43.6231 34.3386 55.0039 34.3386C66.3769 34.3386 75.6071 43.561 75.6071 54.9418C75.6071 66.3148 66.3769 75.545 55.0039 75.545ZM55.0039 27.4709C39.8321 27.4709 27.533 39.77 27.533 54.9418C27.533 70.1136 39.8321 82.4127 55.0039 82.4127C70.1679 82.4127 82.4748 70.1136 82.4748 54.9418C82.4748 39.77 70.1679 27.4709 55.0039 27.4709ZM103.07 82.4127C103.07 86.2037 100.001 89.2804 96.2103 89.2804H13.7976C10.0066 89.2804 6.92986 86.2037 6.92986 82.4127V27.4709C6.92986 23.6799 10.0066 20.6032 13.7976 20.6032H27.533L30.963 13.7355C33.3961 9.7404 34.0397 6.86773 37.8307 6.86773H72.1693C75.9603 6.86773 76.6118 9.7404 79.037 13.7355L82.4748 20.6032H96.2103C100.001 20.6032 103.07 23.6799 103.07 27.4709V82.4127ZM96.2103 13.7355H85.9048L82.4748 6.86773C80.4498 2.87267 79.3981 0 75.6071 0H34.4008C30.6098 0 29.354 3.27296 27.533 6.86773L24.0952 13.7355H13.7976C6.20777 13.7355 0.0621338 19.8889 0.0621338 27.4709V82.4127C0.0621338 89.9947 6.20777 96.1482 13.7976 96.1482H96.2103C103.792 96.1482 109.938 89.9947 109.938 82.4127V27.4709C109.938 19.8889 103.792 13.7355 96.2103 13.7355Z" fill="#B9B9B9"/>
</g>
<defs>
<clipPath id="clip0_1018_25">
<rect width="110" height="96.1482" fill="white"/>
</clipPath>
</defs>
</svg>
