<svg width="75" height="75" viewBox="0 0 75 75" fill="none" xmlns="http://www.w3.org/2000/svg">
<g clip-path="url(#clip0_684_476)">
<path d="M31.5473 57.3363C16.8158 57.3363 4.83985 45.5723 4.83985 31.0528C4.83985 16.5685 16.8158 4.76919 31.5473 4.76919C46.3142 4.76919 58.2548 16.5685 58.2548 31.0528C58.2548 45.5723 46.3142 57.3363 31.5473 57.3363ZM74.2935 70.9374L54.9341 51.8606C59.9859 46.3495 63.13 39.0721 63.13 31.0528C63.13 13.919 48.9991 0 31.5473 0C14.1309 0 0 13.919 0 31.0528C0 48.1865 14.1309 62.1055 31.5473 62.1055C39.0721 62.1055 45.9962 59.4913 51.4366 55.1813L70.8667 74.2935C71.8205 75.2473 73.3396 75.2473 74.2935 74.2935C75.2473 73.3749 75.2473 71.8559 74.2935 70.9374Z" fill="#B9B9B9"/>
</g>
<defs>
<clipPath id="clip0_684_476">
<rect width="75" height="75" fill="white"/>
</clipPath>
</defs>
</svg>
