<svg width="75" height="75" viewBox="0 0 75 75" fill="none" xmlns="http://www.w3.org/2000/svg">
<path d="M27.6174 53.961L15.03 61.5734C13.8911 62.1129 12.8571 61.004 13.3966 59.9251L21.009 47.3227L27.6174 53.961ZM49.7802 16.9181L58.0669 25.0999L31.7233 51.4735C28.6364 48.3716 24.3656 44.1159 23.4965 43.2168L49.7802 16.9181ZM58.0669 8.63137C58.981 7.71728 60.4496 7.71728 61.3636 8.63137L66.3087 13.5764C67.2078 14.4905 67.2078 15.959 66.3087 16.8731L61.3636 21.8182L53.2418 13.4565L58.0669 8.63137ZM19.016 42.3477L8.93107 62.7423C8.07692 65.035 9.92008 67.1029 12.2128 66.0539L32.6074 55.9391C33.4915 55.7892 34.3457 55.4595 35.02 54.7552L71.2388 18.5215C73.0669 16.6933 73.0669 13.7413 71.2388 11.9281L63.012 3.68631C61.1838 1.87313 58.2468 1.87313 56.4186 3.68631L20.1998 39.9351C19.5255 40.6244 19.1808 41.4635 19.016 42.3477ZM70.3097 28.1269V65.6194C70.3097 68.1968 67.7622 70.3397 65.1998 70.3397H9.32068C6.74326 70.3397 4.66034 68.2567 4.66034 65.6793V9.75525C4.66034 7.19281 6.8032 4.69031 9.38062 4.69031H46.8731V0H9.38062C4.24076 0 0 4.61539 0 9.75525V65.6793C0 70.8342 4.16583 75 9.32068 75H65.1998C70.3397 75 75 70.7892 75 65.6194V28.1269H70.3097Z" fill="#B9B9B9"/>
</svg>
